<svg width="48" height="48" viewBox="0 0 48 48" fill="none" xmlns="http://www.w3.org/2000/svg">
<rect width="48" height="48" rx="24" fill="#F35F0F" fill-opacity="0.12"/>
<path d="M23.9933 24.6667H24.0066M29.3213 24.6667H29.3333M18.6666 24.6667H18.6786" stroke="#F35F0F" stroke-width="2" stroke-linecap="round" stroke-linejoin="round"/>
<path d="M26 12.0453C24.3692 11.971 22.7356 11.9875 21.1066 12.0947C15.528 12.4653 11.0853 16.9707 10.72 22.628C10.6493 23.7469 10.6493 24.8691 10.72 25.988C10.8533 28.048 11.764 29.956 12.8373 31.5667C13.46 32.6933 13.0493 34.1 12.4 35.3307C11.9333 36.2173 11.6986 36.66 11.8866 36.98C12.0733 37.3 12.4933 37.3107 13.332 37.3307C14.992 37.3707 16.1106 36.9013 16.9986 36.2467C17.5013 35.8747 17.7533 35.6893 17.9266 35.668C18.1 35.6467 18.4426 35.788 19.1253 36.068C19.7386 36.3213 20.452 36.4773 21.1053 36.5213C23.0053 36.6467 24.9906 36.6467 26.8946 36.5213C32.472 36.1507 36.9146 31.644 37.28 25.988C37.3075 25.5507 37.3244 25.1102 37.3306 24.6667M30.6666 14C31.3213 13.3253 33.0666 10.6667 34 10.6667M34 10.6667C34.9333 10.6667 36.6786 13.3253 37.3333 14M34 10.6667V21.3333" stroke="#F35F0F" stroke-width="1.5" stroke-linecap="round" stroke-linejoin="round"/>
</svg>
