<svg width="16" height="16" viewBox="0 0 16 16" fill="none" xmlns="http://www.w3.org/2000/svg">
<path d="M4.33334 12.4833L5.00001 10.8333C5.10001 10.5778 5.26112 10.3749 5.48334 10.2247C5.70557 10.0744 5.95557 9.99956 6.23334 10H7.33334V7.31667C5.63334 7.26112 4.20823 7.01112 3.05801 6.56667C1.90779 6.12223 1.3329 5.60001 1.33334 5.00001C1.33334 4.35556 1.98334 3.80556 3.28334 3.35001C4.58334 2.89445 6.15557 2.66667 8.00001 2.66667C9.85557 2.66667 11.4307 2.89445 12.7253 3.35001C14.02 3.80556 14.6671 4.35556 14.6667 5.00001C14.6667 5.60001 14.0916 6.12223 12.9413 6.56667C11.7911 7.01112 10.3662 7.26112 8.66668 7.31667V10H9.76668C10.0333 10 10.2807 10.0751 10.5087 10.2253C10.7367 10.3756 10.9005 10.5782 11 10.8333L11.6667 12.4833C11.7556 12.6833 11.736 12.8751 11.608 13.0587C11.48 13.2422 11.3051 13.3338 11.0833 13.3333C10.9611 13.3333 10.85 13.3 10.75 13.2333C10.65 13.1667 10.5722 13.0722 10.5167 12.95L9.86668 11.3333H6.13334L5.48334 12.95C5.42779 13.0722 5.35001 13.1667 5.25001 13.2333C5.15001 13.3 5.0389 13.3333 4.91668 13.3333C4.69445 13.3333 4.51957 13.2416 4.39201 13.058C4.26445 12.8744 4.2449 12.6829 4.33334 12.4833ZM8.00001 6.00001C9.07779 6.00001 10.0945 5.90556 11.05 5.71667C12.0056 5.52778 12.7056 5.28889 13.15 5.00001C12.7056 4.71112 12.0056 4.47223 11.05 4.28334C10.0945 4.09445 9.07779 4.00001 8.00001 4.00001C6.92223 4.00001 5.90557 4.09445 4.95001 4.28334C3.99445 4.47223 3.29445 4.71112 2.85001 5.00001C3.29445 5.28889 3.99445 5.52778 4.95001 5.71667C5.90557 5.90556 6.92223 6.00001 8.00001 6.00001Z" fill="black"/>
</svg>
