<?xml version="1.0" encoding="UTF-8" standalone="no"?>
<!DOCTYPE svg PUBLIC "-//W3C//DTD SVG 1.1//EN" "http://www.w3.org/Graphics/SVG/1.1/DTD/svg11.dtd">
<svg width="100%" height="100%" viewBox="0 0 4762 856" version="1.1" xmlns="http://www.w3.org/2000/svg" xmlns:xlink="http://www.w3.org/1999/xlink" xml:space="preserve" xmlns:serif="http://www.serif.com/" style="fill-rule:evenodd;clip-rule:evenodd;stroke-linejoin:round;stroke-miterlimit:2;">
    <g transform="matrix(1,0,0,1,-862.284,-23504.5)">
        <g transform="matrix(8.33333,0,0,8.33333,0,20250)">
            <g transform="matrix(1,0,0,1,261.816,408.565)">
                <path d="M0,55.388C-4.814,51.824 -7.403,46.72 -7.769,40.079L11.334,40.079C11.517,42.334 12.186,43.979 13.345,45.014C14.502,46.051 15.996,46.568 17.824,46.568C19.468,46.568 20.825,46.157 21.891,45.334C22.957,44.511 23.491,43.369 23.491,41.906C23.491,40.018 22.606,38.556 20.84,37.519C19.072,36.484 16.209,35.326 12.249,34.045C8.043,32.645 4.646,31.29 2.056,29.978C-0.534,28.669 -2.788,26.75 -4.708,24.22C-6.627,21.693 -7.586,18.386 -7.586,14.303C-7.586,10.16 -6.551,6.611 -4.479,3.654C-2.408,0.7 0.457,-1.54 4.114,-3.064C7.769,-4.586 11.913,-5.348 16.544,-5.348C24.039,-5.348 30.026,-3.596 34.505,-0.093C38.983,3.412 41.374,8.332 41.68,14.669L22.211,14.669C22.149,12.719 21.555,11.256 20.429,10.281C19.3,9.307 17.853,8.819 16.087,8.819C14.746,8.819 13.649,9.215 12.796,10.007C11.942,10.799 11.517,11.927 11.517,13.389C11.517,14.608 11.989,15.659 12.934,16.542C13.877,17.426 15.05,18.187 16.453,18.828C17.853,19.467 19.925,20.275 22.668,21.249C26.749,22.652 30.118,24.037 32.768,25.408C35.419,26.779 37.704,28.699 39.623,31.167C41.543,33.635 42.502,36.758 42.502,40.536C42.502,44.374 41.543,47.818 39.623,50.864C37.704,53.912 34.931,56.318 31.305,58.085C27.679,59.852 23.399,60.736 18.464,60.736C10.968,60.736 4.813,58.953 0,55.388" style="fill:rgb(65,64,66);fill-rule:nonzero;"/>
            </g>
        </g>
        <g transform="matrix(8.33333,0,0,8.33333,0,20250)">
            <g transform="matrix(1,0,0,1,346.5,474.739)">
                <path d="M0,-39.578C-1.798,-41.435 -4.007,-42.365 -6.627,-42.365C-9.248,-42.365 -11.457,-41.42 -13.253,-39.532C-15.051,-37.643 -15.95,-35.053 -15.95,-31.762C-15.95,-28.411 -15.051,-25.79 -13.253,-23.902C-11.457,-22.012 -9.248,-21.069 -6.627,-21.069C-4.007,-21.069 -1.798,-22.028 0,-23.948C1.796,-25.867 2.697,-28.472 2.697,-31.762C2.697,-35.113 1.796,-37.718 0,-39.578M-10.009,-55.893C-7.449,-57.294 -4.433,-57.996 -0.959,-57.996C3.122,-57.996 6.824,-56.928 10.146,-54.796C13.466,-52.663 16.087,-49.617 18.007,-45.655C19.925,-41.694 20.886,-37.064 20.886,-31.762C20.886,-26.461 19.925,-21.814 18.007,-17.824C16.087,-13.832 13.466,-10.77 10.146,-8.638C6.824,-6.504 3.122,-5.438 -0.959,-5.438C-4.433,-5.438 -7.435,-6.138 -9.963,-7.541C-12.492,-8.942 -14.487,-10.831 -15.95,-13.208L-15.95,18.418L-33.865,18.418L-33.865,-57.355L-15.95,-57.355L-15.95,-50.226C-14.549,-52.603 -12.568,-54.491 -10.009,-55.893" style="fill:rgb(65,64,66);fill-rule:nonzero;"/>
            </g>
        </g>
        <g transform="matrix(8.33333,0,0,8.33333,0,20250)">
            <g transform="matrix(-1,0,0,1,767.493,-193.957)">
                <rect x="374.789" y="611.34" width="17.915" height="51.277" style="fill:rgb(65,64,66);"/>
            </g>
        </g>
        <g transform="matrix(8.33333,0,0,8.33333,0,20250)">
            <g transform="matrix(1,0,0,1,450.562,462.766)">
                <path d="M0,-39.944C3.474,-36.013 5.21,-30.696 5.21,-23.994L5.21,5.895L-12.705,5.895L-12.705,-21.618C-12.705,-24.542 -13.468,-26.842 -14.99,-28.519C-16.514,-30.194 -18.554,-31.032 -21.114,-31.032C-23.796,-31.032 -25.898,-30.194 -27.421,-28.519C-28.945,-26.842 -29.706,-24.542 -29.706,-21.618L-29.706,5.895L-47.621,5.895L-47.621,-45.382L-29.706,-45.382L-29.706,-38.07C-28.122,-40.385 -25.99,-42.258 -23.307,-43.691C-20.628,-45.122 -17.549,-45.839 -14.076,-45.839C-8.166,-45.839 -3.474,-43.875 0,-39.944" style="fill:rgb(65,64,66);fill-rule:nonzero;"/>
            </g>
        </g>
        <g transform="matrix(8.33333,0,0,8.33333,0,20250)">
            <g transform="matrix(1,0,0,1,392.704,418.661)">
                <path d="M0,8.798L0,-1.319C0,-3.48 -1.752,-5.231 -3.913,-5.231L-14.029,-5.231C-17.515,-5.231 -19.261,-1.017 -16.796,1.448L-6.679,11.565C-4.214,14.029 0,12.284 0,8.798" style="fill:rgb(93,228,244);fill-rule:nonzero;"/>
            </g>
        </g>
        <g transform="matrix(8.33333,0,0,8.33333,0,20250)">
            <g transform="matrix(1,0,0,1,498.079,435.07)">
                <path d="M0,15.903C1.675,14.046 2.513,11.379 2.513,7.906C2.513,4.433 1.675,1.781 0,-0.047C-1.677,-1.874 -3.734,-2.788 -6.17,-2.788C-8.608,-2.788 -10.648,-1.874 -12.294,-0.047C-13.939,1.781 -14.762,4.433 -14.762,7.906C-14.762,11.441 -13.97,14.121 -12.385,15.949C-10.802,17.777 -8.76,18.691 -6.262,18.691C-3.763,18.691 -1.677,17.763 0,15.903M-20.017,31.03C-24.071,28.898 -27.254,25.852 -29.569,21.89C-31.885,17.93 -33.043,13.269 -33.043,7.906C-33.043,2.605 -31.87,-2.026 -29.523,-5.987C-27.178,-9.948 -23.979,-12.994 -19.925,-15.128C-15.874,-17.26 -11.288,-18.327 -6.17,-18.327C-1.051,-18.327 3.534,-17.26 7.586,-15.128C11.638,-12.994 14.837,-9.948 17.184,-5.987C19.529,-2.026 20.702,2.605 20.702,7.906C20.702,13.208 19.529,17.854 17.184,21.845C14.837,25.836 11.622,28.898 7.541,31.03C3.458,33.164 -1.142,34.23 -6.262,34.23C-11.38,34.23 -15.965,33.164 -20.017,31.03" style="fill:rgb(65,64,66);fill-rule:nonzero;"/>
            </g>
        </g>
        <g transform="matrix(8.33333,0,0,8.33333,0,20250)">
            <g transform="matrix(1,0,0,1,556.346,420.216)">
                <path d="M0,33.18L0,48.444L-7.769,48.444C-20.871,48.444 -27.421,41.955 -27.421,28.976L-27.421,12.066L-33.727,12.066L-33.727,-2.833L-27.421,-2.833L-27.421,-15.264L-9.414,-15.264L-9.414,-2.833L-0.092,-2.833L-0.092,12.066L-9.414,12.066L-9.414,29.25C-9.414,30.652 -9.094,31.657 -8.455,32.266C-7.815,32.876 -6.733,33.18 -5.21,33.18L0,33.18Z" style="fill:rgb(65,64,66);fill-rule:nonzero;"/>
            </g>
        </g>
        <g transform="matrix(8.33333,0,0,8.33333,0,20250)">
            <g transform="matrix(1,0,0,1,595.283,448.095)">
                <path d="M0,-10.146C0,-12.339 -0.731,-14.061 -2.193,-15.311C-3.656,-16.558 -5.484,-17.184 -7.678,-17.184C-9.871,-17.184 -11.669,-16.59 -13.071,-15.401C-14.473,-14.213 -15.387,-12.461 -15.813,-10.146L0,-10.146ZM18.007,-1.463L-15.904,-1.463C-15.721,1.341 -14.944,3.427 -13.573,4.798C-12.202,6.17 -10.451,6.855 -8.317,6.855C-5.333,6.855 -3.199,5.515 -1.919,2.833L17.184,2.833C16.391,6.368 14.853,9.521 12.568,12.294C10.283,15.067 7.404,17.245 3.931,18.829C0.457,20.414 -3.382,21.206 -7.586,21.206C-12.644,21.206 -17.138,20.14 -21.068,18.006C-24.998,15.874 -28.076,12.827 -30.3,8.865C-32.525,4.905 -33.636,0.244 -33.636,-5.118C-33.636,-10.48 -32.539,-15.127 -30.345,-19.058C-28.152,-22.988 -25.09,-26.019 -21.159,-28.152C-17.229,-30.284 -12.704,-31.352 -7.586,-31.352C-2.529,-31.352 1.95,-30.315 5.85,-28.244C9.749,-26.171 12.796,-23.201 14.99,-19.332C17.184,-15.461 18.281,-10.907 18.281,-5.667C18.281,-4.265 18.189,-2.864 18.007,-1.463" style="fill:rgb(65,64,66);fill-rule:nonzero;"/>
            </g>
        </g>
        <g transform="matrix(8.33333,0,0,8.33333,0,20250)">
            <g transform="matrix(1,0,0,1,652.958,401.022)">
                <path d="M0,67.638L-14.167,46.615L-14.167,67.638L-32.082,67.638L-32.082,0L-14.167,0L-14.167,36.47L0,16.361L21.479,16.361L1.28,42.136L21.846,67.638L0,67.638Z" style="fill:rgb(65,64,66);fill-rule:nonzero;"/>
            </g>
        </g>
        <g transform="matrix(8.33333,0,0,8.33333,0,20250)">
            <g transform="matrix(108,0,0,-108,112.85,408.66)">
                <path d="M0.387,0.168C0.35,0.168 0.315,0.153 0.289,0.127L-0.003,-0.166L-0.001,-0.168C0.125,-0.055 0.283,0.001 0.442,0.001C0.516,0.001 0.59,-0.011 0.661,-0.036C0.72,-0.057 0.786,-0.043 0.831,0.002L0.997,0.168L0.387,0.168Z" style="fill:url(#_Linear1);fill-rule:nonzero;"/>
            </g>
        </g>
        <g transform="matrix(8.33333,0,0,8.33333,0,20250)">
            <g transform="matrix(65.9478,0,0,-65.9478,107.665,428.794)">
                <path d="M0.076,0.031L0.414,-0.307L0.482,-0.239C0.633,-0.088 0.831,-0.013 1.028,-0.013C1.057,-0.013 1.085,-0.014 1.113,-0.017L1.312,0.181C1.153,0.265 0.977,0.307 0.802,0.307C0.542,0.307 0.283,0.215 0.076,0.031Z" style="fill:url(#_Linear2);fill-rule:nonzero;"/>
            </g>
        </g>
        <g transform="matrix(8.33333,0,0,8.33333,0,20250)">
            <g transform="matrix(68.5364,0,0,-68.5364,94.3522,446.089)">
                <path d="M0.658,0.023L0.593,-0.043L0.79,-0.24L1.265,0.236C1.238,0.239 1.211,0.24 1.184,0.24C0.994,0.24 0.803,0.168 0.658,0.023Z" style="fill:url(#_Linear3);fill-rule:nonzero;"/>
            </g>
        </g>
        <g transform="matrix(8.33333,0,0,8.33333,0,20250)">
            <g transform="matrix(1,0,0,1,211.474,465.944)">
                <path d="M0,-21.4L-31.358,9.958C-34.33,12.93 -38.361,14.6 -42.564,14.6L-108,14.6L-76.5,-16.9L-70.21,-10.61C-66.228,-6.628 -59.772,-6.628 -55.79,-10.61L-30.4,-36C-19.3,-34.78 -8.51,-29.91 0,-21.4" style="fill:rgb(20,180,242);fill-rule:nonzero;"/>
            </g>
        </g>
        <g transform="matrix(8.33333,0,0,8.33333,0,20250)">
            <g transform="matrix(1,0,0,1,211.474,465.944)">
                <path d="M0,-21.4L-31.358,9.958C-34.33,12.93 -38.361,14.6 -42.564,14.6L-108,14.6L-76.5,-16.9L-70.21,-10.61C-66.228,-6.628 -59.772,-6.628 -55.79,-10.61L-30.4,-36C-19.3,-34.78 -8.51,-29.91 0,-21.4" style="fill:rgb(20,180,242);fill-rule:nonzero;"/>
            </g>
        </g>
        <g transform="matrix(8.33333,0,0,8.33333,0,20250)">
            <g transform="matrix(1,0,0,1,220.474,476.533)">
                <path d="M0,-6.746L0,1.011C0,2.668 -1.343,4.011 -3,4.011L-10.757,4.011C-13.43,4.011 -14.769,0.78 -12.879,-1.11L-5.121,-8.867C-3.231,-10.757 0,-9.419 0,-6.746" style="fill:rgb(93,228,244);fill-rule:nonzero;"/>
            </g>
        </g>
        <g transform="matrix(8.33333,0,0,8.33333,0,20250)">
            <g transform="matrix(1,0,0,1,103.474,394.556)">
                <path d="M0,6.746L0,-1.011C0,-2.668 1.343,-4.011 3,-4.011L10.757,-4.011C13.43,-4.011 14.769,-0.78 12.879,1.11L5.121,8.867C3.231,10.757 0,9.419 0,6.746" style="fill:rgb(93,228,244);fill-rule:nonzero;"/>
            </g>
        </g>
    </g>
    <defs>
        <linearGradient id="_Linear1" x1="0" y1="0" x2="1" y2="0" gradientUnits="userSpaceOnUse" gradientTransform="matrix(1,0,0,-1,0,5.93148e-06)"><stop offset="0" style="stop-color:rgb(20,180,242);stop-opacity:1"/><stop offset="1" style="stop-color:rgb(0,80,244);stop-opacity:1"/></linearGradient>
        <linearGradient id="_Linear2" x1="0" y1="0" x2="1" y2="0" gradientUnits="userSpaceOnUse" gradientTransform="matrix(1,0,0,-1,0,-5.74697e-06)"><stop offset="0" style="stop-color:rgb(20,180,242);stop-opacity:1"/><stop offset="1" style="stop-color:rgb(0,80,244);stop-opacity:1"/></linearGradient>
        <linearGradient id="_Linear3" x1="0" y1="0" x2="1" y2="0" gradientUnits="userSpaceOnUse" gradientTransform="matrix(1,0,0,-1,0,-5.0309e-06)"><stop offset="0" style="stop-color:rgb(20,180,242);stop-opacity:1"/><stop offset="1" style="stop-color:rgb(0,80,244);stop-opacity:1"/></linearGradient>
    </defs>
</svg>
