<?xml version="1.0" encoding="UTF-8" standalone="no"?>
<!-- Created with Inkscape (http://www.inkscape.org/) -->

<svg
   width="67.470215mm"
   height="80.019753mm"
   viewBox="0 0 67.470215 80.019753"
   version="1.1"
   id="svg1"
   xml:space="preserve"
   xmlns="http://www.w3.org/2000/svg"
   xmlns:svg="http://www.w3.org/2000/svg"><defs
     id="defs1" /><g
     id="layer2"
     transform="translate(-6470.5253,-2679.1946)"><g
       id="g30-0-0-2-6-6-5"
       transform="matrix(0.90931696,0,0,0.90931696,1243.1207,1903.8224)"
       style="fill:#ffffff;fill-opacity:1"><path
         d="m 5781.2123,852.69736 a 38.324254,44.462122 0 0 0 -29.7839,27.51415 38.324254,44.462122 0 0 0 -0.5773,1.7954 38.324254,44.462122 0 0 0 -2.1355,14.6355 38.324254,44.462122 0 0 0 33.1489,44.0548 38.324254,44.462122 0 0 0 2.1355,-14.6356 38.324254,44.462122 0 0 0 -4.4701,-20.839 38.324254,44.462122 0 0 1 -2.1213,-4.0916 38.324254,44.462122 0 0 1 -4.4074,-18.2961 38.324254,44.462122 0 0 1 -0.063,-2.5433 38.324254,44.462122 0 0 1 8.2739,-27.59425 z"
         style="display:inline;fill:#ffffff;fill-opacity:1;fill-rule:evenodd;stroke:none;stroke-width:3.64704;stroke-linecap:round;stroke-linejoin:round;stroke-dasharray:none"
         id="path4-0-4-3-3-2-3-7-5-7-1" /><path
         d="m 5795.5729,853.29641 a 38.324254,44.462122 0 0 0 -8.3803,27.7499 38.324254,44.462122 0 0 0 4.4744,20.8487 38.324254,44.462122 0 0 1 0.5655,1.1917 38.324254,44.462122 0 0 1 4.4117,18.3057 38.324254,44.462122 0 0 1 0.063,2.543 38.324254,44.462122 0 0 1 -2.7132,16.4309 38.324254,44.462122 0 0 0 22.9895,-15.9743 38.324254,44.462122 0 0 0 0.1061,-0.155 38.324254,44.462122 0 0 0 5.78,-11.8172 38.324254,44.462122 0 0 1 -22.7046,-40.6022 38.324254,44.462122 0 0 1 2.4939,-15.77701 38.324254,44.462122 0 0 0 -7.0861,-2.74419 z"
         style="display:inline;fill:#ffffff;fill-opacity:1;fill-rule:evenodd;stroke:none;stroke-width:3.64704;stroke-linecap:round;stroke-linejoin:round;stroke-dasharray:none"
         id="path5-2-9-5-7-4-9-3-5-8-3" /><path
         style="baseline-shift:baseline;display:inline;overflow:visible;vector-effect:none;fill:#ffffff;fill-opacity:1;fill-rule:evenodd;stroke-linecap:round;stroke-linejoin:round;enable-background:accumulate;stop-color:#000000"
         d="m 5808.8241,864.98604 a 1.8235199,1.8235199 0 0 0 -2.1426,1.43554 c -0.76,3.84816 -0.9124,8.01751 -0.3516,12.30664 1.3766,10.52649 6.682,19.28339 13.8028,23.68359 a 1.8235199,1.8235199 0 0 0 2.5097,-0.5937 1.8235199,1.8235199 0 0 0 -0.5937,-2.5098 c -5.947,-3.6749 -10.849,-11.4745 -12.1016,-21.05274 -0.5103,-3.90285 -0.3683,-7.67945 0.3125,-11.12696 a 1.8235199,1.8235199 0 0 0 -1.4355,-2.14257 z"
         id="path6-4-1-2-6-8-8-7-8-4-9" /><path
         style="baseline-shift:baseline;display:inline;overflow:visible;vector-effect:none;fill:#ffffff;fill-opacity:1;fill-rule:evenodd;stroke-linecap:round;stroke-linejoin:round;enable-background:accumulate;stop-color:#000000"
         d="m 5815.1034,874.57002 a 1.8235199,1.8235199 0 0 0 -1.7735,1.87109 c 0.1742,6.4652 2.0432,11.6922 5.8633,16.0176 a 1.8235199,1.8235199 0 0 0 2.5742,0.1582 1.8235199,1.8235199 0 0 0 0.1602,-2.5723 c -3.2693,-3.7018 -4.7937,-7.8556 -4.9512,-13.70115 a 1.8235199,1.8235199 0 0 0 -1.873,-1.77344 z"
         id="path6-5-8-7-2-8-3-65-9-1-1-7" /></g></g></svg>
