<svg xmlns="http://www.w3.org/2000/svg" width="1061" height="627" fill="none"><path fill="#121212" d="M1002.42 624.823h-42.287v1.464h42.287zM951.465 624.823H62.275v1.464h889.19zM71.47 552.9c2.474 1.083 8.521.952 8.521.952s-1.303-3.968-1.464-4.203c-1.332-2.782-5.535-7.321-8.946-6.896a4.06 4.06 0 0 0-2.775 1.825 4.08 4.08 0 0 0-.49 3.285c.614 2.357 3.045 4.114 5.153 5.037"/><path fill="#121212" d="M73.52 570.427c2.562.366 7.95-1.201 8.39-1.318a71.5 71.5 0 0 0 3.323 9.049c.747 1.728 1.552 3.426 2.372 5.139-.498-.732-.937-1.362-1.01-1.464-2.02-2.328-7.321-5.637-10.44-4.29a4.06 4.06 0 0 0-2.208 2.483 4.06 4.06 0 0 0 .378 3.3c1.171 2.138 3.983 3.192 6.252 3.515 2.27.322 6.94-.894 8.156-1.245l.966 1.947c1.567 3.119 3.134 6.209 4.583 9.298.513 1.098.981 2.182 1.464 3.265-.439-.629-.805-1.171-.878-1.244-2.006-2.328-7.321-5.637-10.44-4.29a4.062 4.062 0 0 0-2.359 4.176c.066.568.251 1.116.543 1.607 1.186 2.138 3.983 3.192 6.253 3.529a26.1 26.1 0 0 0 7.936-1.201c.453 1.128.893 2.27 1.273 3.383.25.761.542 1.464.733 2.269s.439 1.538.644 2.285c.351 1.464.732 3.001 1.039 4.392.22 1.011.41 1.962.615 2.929-.497-1.084-1.464-3.192-1.625-3.368-1.64-2.592-6.325-6.662-9.664-5.857a4.073 4.073 0 0 0-2.665 5.447c.835 2.284 3.441 3.748 5.638 4.393 2.43.746 7.775 0 8.448 0 .322 1.61.615 3.162.879 4.641.132.776.249 1.464.38 2.255h2.124l-.498-2.636a224 224 0 0 0-1.098-5.124 44 44 0 0 0 4.7-2.153 29.6 29.6 0 0 0 6.867 4.393 531 531 0 0 0-1.83 4.393c-.176.424-.352.805-.527 1.2h2.284l.175-.41c.63-1.464 1.274-3.177 1.919-4.876.644.132 5.944 1.216 8.419.659 2.24-.512 4.949-1.786 5.959-3.997a4.084 4.084 0 0 0-2.255-5.637c-3.265-1.098-8.243 2.621-10.074 5.095-.117.147-1.098 1.86-1.713 2.929.264-.688.527-1.362.776-2.079.527-1.465 1.011-2.856 1.465-4.393.234-.762.453-1.464.688-2.284s.395-1.596.615-2.387a80 80 0 0 0 1.112-5.71c1.245.453 5.696 1.991 7.995 1.83s5.169-.996 6.501-3.031a4.065 4.065 0 0 0-.109-4.754 4.1 4.1 0 0 0-1.267-1.103c-3.06-1.581-8.551 1.332-10.733 3.499-.132.132-1.464 1.875-2.269 2.841.19-1.171.38-2.328.527-3.514.424-3.412.746-6.882 1.083-10.352.103-1.054.22-2.109.322-3.163.44.161 5.682 2.109 8.273 1.933 2.284-.161 5.169-1.01 6.487-3.046a4.073 4.073 0 0 0-1.362-5.856c-3.075-1.582-8.566 1.317-10.733 3.499-.175.161-2.167 2.65-2.65 3.309.249-2.328.513-4.641.879-6.911a71 71 0 0 1 1.976-9.093c.205 0 5.681 2.138 8.317 1.948 2.299-.161 5.169-.996 6.501-3.046a4.065 4.065 0 0 0-.109-4.753 4.1 4.1 0 0 0-1.267-1.104c-3.06-1.581-8.551 1.333-10.733 3.5-.176.161-2.313 2.928-2.665 3.367 0-.175.073-.351.132-.527a54 54 0 0 1 3.602-8.609 110 110 0 0 1 2.46-4.32c.981.483 5.476 2.665 7.877 2.768 2.402.102 5.242-.425 6.78-2.314a4.06 4.06 0 0 0 .453-4.774 4.1 4.1 0 0 0-1.156-1.244c-2.929-1.918-8.654.381-11.055 2.299-.132.103-1.347 1.303-2.211 2.196.381-.6.776-1.244 1.157-1.815 1.464-2.182 2.928-4.071 4.202-5.74.747-.952 1.464-1.786 2.094-2.562 1.215 0 6.091-.176 8.229-1.172 2.138-.995 4.392-2.796 4.949-5.183a4.08 4.08 0 0 0-.577-3.27 4.06 4.06 0 0 0-2.82-1.752c-3.426-.366-7.497 4.392-8.785 7.145-.103.234-1.362 4.232-1.304 4.232q-.966 1.098-2.064 2.416c-1.333 1.654-2.841 3.514-4.393 5.666a74 74 0 0 0-4.495 7.16 53.5 53.5 0 0 0-3.836 8.639v.102-4.041c-.396-3.06-2.929-8.712-6.34-9.341a4.086 4.086 0 0 0-4.7 3.836c-.191 2.416 1.566 4.846 3.279 6.384 1.933 1.728 7.322 3.397 7.717 3.529a73 73 0 0 0-2.182 9.327c-.322 1.845-.6 3.704-.849 5.578v-1.757c-.395-3.045-2.928-8.712-6.34-9.341a4.074 4.074 0 0 0-4.803 3.763c-.205 2.43 1.552 4.846 3.265 6.384 1.714 1.537 6.282 3.074 7.497 3.455-.088.718-.19 1.464-.278 2.152-.41 3.471-.805 6.912-1.303 10.25-.161 1.186-.381 2.357-.586 3.514v-1.464c-.395-3.06-2.928-8.712-6.34-9.342a4.08 4.08 0 0 0-3.213.867 4.1 4.1 0 0 0-1.502 2.969c-.19 2.416 1.567 4.847 3.28 6.384 1.713 1.538 5.857 2.929 7.321 3.383-.249 1.186-.498 2.372-.805 3.514-.22.776-.366 1.537-.644 2.299-.278.761-.483 1.464-.718 2.269-.527 1.465-1.054 2.929-1.596 4.261-.366.967-.732 1.874-1.098 2.782.19-1.171.498-3.499.513-3.69a15.9 15.9 0 0 0-2.124-7.701 6 6 0 0 0 0-.908 4.06 4.06 0 0 0-1.723-2.846 4.07 4.07 0 0 0-3.27-.61c-3.323.879-5.432 6.721-5.593 9.796 0 .19.103 2.167.205 3.411-.176-.732-.322-1.464-.512-2.167-.337-1.464-.732-2.928-1.157-4.509-.22-.747-.454-1.465-.688-2.285-.235-.82-.527-1.537-.806-2.328-.659-1.801-1.464-3.587-2.21-5.373 1.288-.308 5.856-1.465 7.687-2.929 1.83-1.464 3.748-3.69 3.733-6.12a4.084 4.084 0 0 0-4.392-4.173c-3.427.38-6.399 5.857-7.014 8.785 0 .19-.249 2.401-.337 3.617-.483-1.069-.966-2.138-1.464-3.207-1.464-3.089-3.177-6.164-4.802-9.239-.498-.937-.996-1.874-1.465-2.826.454-.103 5.857-1.362 7.966-2.929 1.815-1.391 3.748-3.689 3.733-6.12a4.1 4.1 0 0 0-1.27-3.061 4.08 4.08 0 0 0-3.122-1.112c-3.427.381-6.399 5.857-7.014 8.785 0 .235-.337 3.412-.366 4.232-1.084-2.079-2.138-4.159-3.09-6.252a71 71 0 0 1-3.367-8.683c.22 0 5.857-1.347 8.01-2.929 1.815-1.464 3.762-3.689 3.733-6.12a4.06 4.06 0 0 0-2.709-3.958 4.1 4.1 0 0 0-1.684-.215c-3.426.366-6.398 5.857-7.028 8.785 0 .235-.351 3.661-.366 4.276a5 5 0 0 1-.176-.513 52 52 0 0 1-1.86-9.005c-.19-1.713-.278-3.353-.336-4.963 1.083-.132 6.047-.791 8.097-2.036 2.05-1.244 4.144-3.25 4.393-5.666a4.1 4.1 0 0 0-2.275-4.233 4.1 4.1 0 0 0-1.65-.409c-3.44 0-6.998 5.096-7.95 8.024 0 .161-.395 1.831-.63 3.06v-2.167c0-2.606.161-4.993.322-7.101.103-1.201.22-2.284.352-3.295.996-.688 4.978-3.499 6.208-5.505s2.167-4.803 1.274-7.058a4.075 4.075 0 0 0-3.958-2.716 4.1 4.1 0 0 0-1.65.403c-3.06 1.581-3.866 7.746-3.368 10.777 0 .263 1.2 4.29 1.26 4.261-.132.966-.264 2.005-.396 3.148-.205 2.123-.424 4.509-.483 7.116a70 70 0 0 0 .205 8.448c.232 3.15.751 6.272 1.552 9.327a.4.4 0 0 0 0 .117c-.542-.863-2.138-3.192-2.284-3.353-2.006-2.328-7.321-5.637-10.44-4.29a4.05 4.05 0 0 0-2.197 2.488 4.06 4.06 0 0 0 .396 3.296c1.2 2.094 3.997 3.207 6.238 3.485"/><path fill="#121212" d="M132.644 554.232s1.099-4.012 1.128-4.275c.425-3.06-.542-9.195-3.646-10.689a4.07 4.07 0 0 0-4.701.987 4.1 4.1 0 0 0-.848 1.473c-.835 2.284.219 5.081 1.464 7.014 1.479 2.269 6.589 5.49 6.603 5.49M875.458 563.896c2.108.908 7.233.791 7.233.791s-1.098-3.353-1.201-3.558c-1.113-2.357-4.685-6.252-7.584-5.857a3.457 3.457 0 0 0-2.768 4.393 7.31 7.31 0 0 0 4.32 4.231"/><path fill="#121212" d="M877.229 578.758c2.181.322 6.764-1.01 7.13-1.113a61 61 0 0 0 2.768 7.688 118 118 0 0 0 2.02 4.392l-.863-1.23c-1.699-1.976-6.165-4.788-8.859-3.631a3.4 3.4 0 0 0-1.134.872 3.44 3.44 0 0 0-.801 2.682c.061.478.221.939.471 1.351a7.22 7.22 0 0 0 5.315 2.929 22.7 22.7 0 0 0 6.911-1.055c.278.542.542 1.098.82 1.655 1.332 2.635 2.665 5.271 3.895 7.892.439.922.834 1.845 1.23 2.767l-.747-1.069c-1.713-1.962-6.179-4.773-8.785-3.631a3.445 3.445 0 0 0-2.003 3.542c.057.482.216.947.465 1.363a7.2 7.2 0 0 0 5.301 2.929 21.6 21.6 0 0 0 6.735-1.01c.381.966.762 1.918 1.084 2.928.205.644.454 1.259.615 1.933.161.673.366 1.303.556 1.932.293 1.26.615 2.548.879 3.764.175.863.351 1.669.512 2.489-.425-.923-1.288-2.709-1.376-2.856-1.391-2.211-5.374-5.666-8.2-4.934a3.46 3.46 0 0 0-2.521 3.206c-.017.486.069.97.252 1.421a7.32 7.32 0 0 0 4.788 3.748c2.377.362 4.796.362 7.174 0a141 141 0 0 1 1.069 5.843h1.801c-.132-.718-.263-1.465-.425-2.226-.263-1.391-.585-2.855-.922-4.393a40 40 0 0 0 3.997-1.874 25.2 25.2 0 0 0 5.857 3.749 166 166 0 0 1-1.552 3.704l-.454 1.01h1.904c0-.117.102-.219.146-.336a166 166 0 0 0 1.625-4.159c2.34.551 4.75.739 7.146.557a7.2 7.2 0 0 0 5.066-3.383 3.46 3.46 0 0 0 .114-2.824 3.466 3.466 0 0 0-2.032-1.964c-2.768-.922-6.999 2.226-8.551 4.32a104 104 0 0 0-1.464 2.518c.219-.6.439-1.171.658-1.786.454-1.201.85-2.416 1.289-3.719.19-.645.395-1.289.586-1.933s.336-1.347.527-2.035c.366-1.582.673-3.207.952-4.847a23 23 0 0 0 6.779 1.567 7.18 7.18 0 0 0 5.505-2.592 3.435 3.435 0 0 0-.066-4.067 3.4 3.4 0 0 0-1.09-.94c-2.592-1.348-7.322 1.127-9.108 2.928-.117.117-1.303 1.581-1.933 2.401.161-.981.322-1.976.44-2.928.366-2.929.644-5.857.922-8.786.088-.907.19-1.8.278-2.694.381.147 4.832 1.801 7.014 1.64a7.23 7.23 0 0 0 5.52-2.577 3.48 3.48 0 0 0 .532-2.772 3.46 3.46 0 0 0-1.703-2.25c-2.592-1.332-7.321 1.142-9.108 2.928-.132.147-1.83 2.27-2.24 2.826.22-1.976.439-3.938.747-5.857a61 61 0 0 1 1.684-7.731 24.4 24.4 0 0 0 7.057 1.67 7.33 7.33 0 0 0 5.506-2.592 3.47 3.47 0 0 0 .537-2.762 3.45 3.45 0 0 0-1.694-2.246c-2.606-1.347-7.321 1.128-9.108 2.929-.146.146-1.976 2.416-2.269 2.855 0-.146.073-.308.117-.454a43 43 0 0 1 3.06-7.321 48 48 0 0 1 2.079-3.661 23.4 23.4 0 0 0 6.677 2.343 7.18 7.18 0 0 0 5.769-1.962 3.46 3.46 0 0 0 .841-2.689 3.45 3.45 0 0 0-1.441-2.421c-2.445-1.611-7.321.322-9.386 1.962a91 91 0 0 0-1.874 1.86c.322-.513.659-1.055.981-1.538 1.23-1.845 2.46-3.455 3.573-4.876.629-.805 1.215-1.464 1.771-2.181a23 23 0 0 0 6.985-.981 7.33 7.33 0 0 0 4.202-4.393 3.454 3.454 0 0 0-2.928-4.261c-2.929-.307-6.37 3.675-7.439 6.062-.087.205-1.156 3.602-1.098 3.602a62 62 0 0 0-1.742 2.05c-1.142 1.391-2.416 2.928-3.69 4.802a62 62 0 0 0-3.807 6.077 45.4 45.4 0 0 0-3.265 7.321v.088-3.441c-.322-2.577-2.504-7.394-5.374-7.921a3.46 3.46 0 0 0-2.721.736 3.48 3.48 0 0 0-1.276 2.514 7.33 7.33 0 0 0 2.782 5.418c1.64 1.464 6.194 2.928 6.56 3.001a62 62 0 0 0-1.933 7.936 103 103 0 0 0-.718 4.745v-1.465c-.336-2.591-2.503-7.394-5.373-7.921a3.45 3.45 0 0 0-2.891.712 3.45 3.45 0 0 0-1.253 2.7 7.32 7.32 0 0 0 2.782 5.417 22.8 22.8 0 0 0 6.355 2.929c-.074.615-.161 1.23-.235 1.83-.351 2.928-.688 5.857-1.098 8.785-.146 1.01-.337 2.006-.512 2.929v-1.289c-.337-2.592-2.504-7.321-5.389-7.936a3.46 3.46 0 0 0-3.621 1.869c-.217.435-.34.911-.361 1.396a7.23 7.23 0 0 0 2.767 5.418 22.2 22.2 0 0 0 6.179 2.928 46 46 0 0 1-.673 2.929c-.191.659-.323 1.303-.542 1.947s-.425 1.289-.63 1.918c-.439 1.216-.878 2.46-1.347 3.632a87 87 0 0 1-.937 2.357c.161-.996.425-2.929.439-3.133a13.7 13.7 0 0 0-1.801-6.546 4.4 4.4 0 0 0 0-.761 3.48 3.48 0 0 0-1.466-2.403 3.48 3.48 0 0 0-2.765-.525c-2.826.761-4.613 5.725-4.744 8.331 0 .146.087 1.83.175 2.928-.146-.615-.278-1.215-.439-1.845a106 106 0 0 0-.981-3.821 95 95 0 0 0-.586-1.933c-.205-.644-.454-1.318-.673-1.977a96 96 0 0 0-1.874-4.568 22.6 22.6 0 0 0 6.515-2.445 7.3 7.3 0 0 0 2.153-2.246 7.3 7.3 0 0 0 1.025-2.937 3.46 3.46 0 0 0-1.081-2.612 3.457 3.457 0 0 0-2.668-.932c-2.928.308-5.432 4.935-5.959 7.497 0 .161-.205 2.035-.278 3.075-.41-.908-.82-1.816-1.274-2.724-1.303-2.621-2.694-5.227-4.071-7.833l-1.259-2.402a24.2 24.2 0 0 0 6.765-2.503 7.32 7.32 0 0 0 3.163-5.198 3.48 3.48 0 0 0-1.081-2.601 3.48 3.48 0 0 0-2.653-.943c-2.929.322-5.432 4.949-5.96 7.512 0 .19-.278 2.928-.307 3.587-.923-1.772-1.816-3.529-2.621-5.315a60 60 0 0 1-2.928-7.321c.175 0 5.007-1.142 6.793-2.504a7.23 7.23 0 0 0 3.178-5.198 3.47 3.47 0 0 0-1.085-2.606 3.467 3.467 0 0 0-2.664-.937c-2.928.322-5.417 4.949-5.944 7.511 0 .19-.308 3.104-.322 3.631 0-.146-.103-.293-.147-.439a45 45 0 0 1-1.464-7.79 54 54 0 0 1-.278-4.202 23.4 23.4 0 0 0 6.867-1.728 7.2 7.2 0 0 0 3.719-4.817 3.46 3.46 0 0 0-.787-2.703 3.44 3.44 0 0 0-2.537-1.221c-2.928 0-5.944 4.319-6.75 6.794 0 .146-.337 1.567-.527 2.606v-1.845c0-2.211.147-4.231.278-6.018.088-1.025.191-1.947.293-2.796a23.4 23.4 0 0 0 5.257-4.686 7.33 7.33 0 0 0 1.098-5.988 3.473 3.473 0 0 0-1.952-2.038 3.49 3.49 0 0 0-2.822.075c-2.591 1.348-3.279 6.575-2.84 9.152 0 .219 1.01 3.646 1.054 3.616a80 80 0 0 0-.337 2.68c-.175 1.801-.366 3.822-.41 6.047a64 64 0 0 0 .161 7.175 46.3 46.3 0 0 0 1.333 7.907.2.2 0 0 1 0 .088 89 89 0 0 0-1.933-2.841c-1.713-1.977-6.164-4.788-8.785-3.646a3.46 3.46 0 0 0-1.87 2.116 3.467 3.467 0 0 0 .332 2.804 7.23 7.23 0 0 0 5.228 2.767"/><path fill="#121212" d="M927.379 565.024s.937-3.412.966-3.646c.366-2.577-.468-7.79-3.089-9.064a3.47 3.47 0 0 0-2.824-.003 3.48 3.48 0 0 0-1.891 2.097 7.23 7.23 0 0 0 1.244 5.945c1.245 1.933 5.594 4.671 5.594 4.671M992.829 589.798a14.5 14.5 0 0 1-4.202.454s.644-1.947.688-2.064c.659-1.362 2.724-3.617 4.393-3.397a2 2 0 0 1 1.662 1.683c.042.279.024.563-.052.835a4.24 4.24 0 0 1-2.489 2.489"/><path fill="#121212" d="M991.789 598.408a14 14 0 0 1-4.129-.644 33 33 0 0 1-1.61 4.465c-.367.835-.762 1.684-1.157 2.519l.483-.703c.996-1.157 3.587-2.782 5.154-2.123a2.03 2.03 0 0 1 1.07 1.234 2.01 2.01 0 0 1-.191 1.621 4.14 4.14 0 0 1-3.075 1.728 12.9 12.9 0 0 1-4.012-.615l-.483.966a146 146 0 0 0-2.255 4.569c-.249.542-.469 1.069-.703 1.61l.424-.615c.996-1.142 3.588-2.782 5.14-2.108a1.993 1.993 0 0 1 .893 2.841 4.18 4.18 0 0 1-3.075 1.742 13 13 0 0 1-3.909-.586c-.22.557-.439 1.113-.63 1.655-.19.542-.263.732-.351 1.127-.088.396-.22.747-.322 1.128a115 115 0 0 0-.513 2.181c-.102.484-.205.967-.293 1.465l.791-1.655c.805-1.288 3.119-3.28 4.759-2.928a2 2 0 0 1 1.256 1.045 2 2 0 0 1 .062 1.634 4.18 4.18 0 0 1-2.783 2.182c-1.378.211-2.78.211-4.158 0a63 63 0 0 0-.425 2.284c0 .395-.131.747-.19 1.113h-1.054c.088-.425.161-.849.249-1.289.161-.805.351-1.654.542-2.533a21 21 0 0 1-2.314-1.083 14.8 14.8 0 0 1-3.382 2.167c.293.746.6 1.464.893 2.152l.263.586h-1.098l-.088-.205c-.307-.747-.629-1.567-.951-2.401-1.356.321-2.754.43-4.144.322a4.18 4.18 0 0 1-2.928-1.962 2.003 2.003 0 0 1 1.112-2.768c1.596-.542 4.056 1.274 4.949 2.504 0 .073.542.908.85 1.464a20 20 0 0 1-.381-1.025c-.264-.703-.498-1.464-.747-2.167a26 26 0 0 1-.337-1.127c-.102-.381-.205-.776-.307-1.172a43 43 0 0 1-.556-2.811 13.5 13.5 0 0 1-3.925.908 4.276 4.276 0 0 1-3.206-1.464 2.03 2.03 0 0 1-.316-1.615 2.02 2.02 0 0 1 .989-1.314c1.465-.776 4.217.659 5.286 1.728.073 0 .747.908 1.113 1.391a60 60 0 0 1-.249-1.728c-.205-1.684-.366-3.397-.527-5.095 0-.527-.117-1.04-.161-1.567-1.3.526-2.673.852-4.071.967a4.242 4.242 0 0 1-3.206-1.465 2 2 0 0 1-.323-1.616 2 2 0 0 1 .996-1.312c1.464-.791 4.217.644 5.286 1.713a46 46 0 0 1 1.303 1.64 67 67 0 0 0-.424-3.412 39 39 0 0 0-.981-4.48 14.1 14.1 0 0 1-4.1.966 4.2 4.2 0 0 1-3.192-1.464 2 2 0 0 1-.323-1.616 2 2 0 0 1 .996-1.312c1.465-.777 4.217.658 5.286 1.727.088.088 1.142 1.465 1.318 1.655 0-.073 0-.176-.073-.264a25.6 25.6 0 0 0-1.772-4.231 24 24 0 0 0-1.215-2.123 13.6 13.6 0 0 1-3.866 1.361 4.22 4.22 0 0 1-3.353-1.142 2 2 0 0 1-.466-1.541 2 2 0 0 1 .818-1.387c1.464-.937 4.26.19 5.446 1.127 0 0 .659.644 1.084 1.084-.19-.293-.381-.615-.571-.893-.703-1.069-1.464-2.006-2.065-2.826a26 26 0 0 0-1.039-1.26 13.5 13.5 0 0 1-4.042-.585 4.21 4.21 0 0 1-2.445-2.548 2.01 2.01 0 0 1 .294-1.61 2.03 2.03 0 0 1 1.39-.865c1.684-.175 3.69 2.138 4.305 3.515 0 .131.674 2.093.644 2.093.322.352.659.747 1.025 1.186.659.806 1.464 1.728 2.138 2.797a37 37 0 0 1 2.211 3.514 26.4 26.4 0 0 1 1.889 4.261v-1.991c.19-1.464 1.464-4.29 3.118-4.598a2.01 2.01 0 0 1 2.102 1.08 2 2 0 0 1 .212.809 4.2 4.2 0 0 1-.459 1.751 4.2 4.2 0 0 1-1.152 1.397 13.8 13.8 0 0 1-3.807 1.728 36 36 0 0 1 1.113 4.612c.161.908.308 1.83.425 2.753a9 9 0 0 1 0-.879c.19-1.464 1.464-4.29 3.119-4.597a2.01 2.01 0 0 1 2.097 1.083c.127.25.201.525.216.805a4.22 4.22 0 0 1-1.611 3.149 13.5 13.5 0 0 1-3.689 1.698l.131 1.069c.205 1.698.396 3.397.645 5.051.087.586.19 1.172.292 1.743v-.761c.205-1.465 1.465-4.291 3.134-4.598a2.02 2.02 0 0 1 2.313 1.889 4.26 4.26 0 0 1-1.61 3.148 13 13 0 0 1-3.588 1.669c.117.586.249 1.171.396 1.728.146.556.19.761.307 1.127s.249.747.366 1.113c.249.703.513 1.464.776 2.108l.542 1.362c-.088-.571-.234-1.713-.249-1.815a7.86 7.86 0 0 1 1.054-3.793 1.5 1.5 0 0 1 0-.439 2.01 2.01 0 0 1 2.446-1.713c1.64.439 2.679 3.324 2.752 4.832 0 .088 0 1.069-.087 1.684 0-.366.146-.703.248-1.069.161-.732.352-1.464.557-2.226l.351-1.113c.103-.38.264-.761.396-1.156a41 41 0 0 1 1.083-2.651 13 13 0 0 1-3.778-1.464 4.24 4.24 0 0 1-1.845-3.016 2 2 0 0 1 .154-.823 2.021 2.021 0 0 1 2.014-1.242c1.683.191 3.148 2.929 3.455 4.393 0 .088.117 1.171.161 1.772.249-.527.483-1.055.747-1.582a488 488 0 0 1 2.357-4.539l.732-1.391a14.2 14.2 0 0 1-3.924-1.464 4.17 4.17 0 0 1-1.83-3.016 2.01 2.01 0 0 1 2.167-2.05c1.684.176 3.148 2.928 3.456 4.392 0 .118.161 1.684.175 2.08.527-1.025 1.055-2.036 1.465-3.075a36 36 0 0 0 1.654-4.276 13.8 13.8 0 0 1-3.939-1.464 4.15 4.15 0 0 1-1.845-3.016 2.01 2.01 0 0 1 1.34-1.943c.265-.093.547-.13.827-.107 1.684.176 3.149 2.928 3.456 4.393 0 .117.176 1.801.176 2.108a2 2 0 0 0 .088-.249c.42-1.48.709-2.994.863-4.524.088-.835.132-1.64.162-2.431a13.8 13.8 0 0 1-3.983-1.01 4.164 4.164 0 0 1-2.153-2.782 1.995 1.995 0 0 1 1.919-2.284c1.698 0 3.455 2.503 3.909 3.938 0 .088.205.908.322 1.464v-1.068c0-1.274-.088-2.446-.161-3.485 0-.601-.117-1.128-.176-1.626a13.7 13.7 0 0 1-3.045-2.708 4.18 4.18 0 0 1-.644-3.485 2 2 0 0 1 1.134-1.175 2.01 2.01 0 0 1 1.633.047c1.464.776 1.903 3.807 1.655 5.301 0 .132-.586 2.108-.615 2.094.073.468.131.981.19 1.552.102 1.039.205 2.211.249 3.499.044 1.387.01 2.776-.103 4.159a26.4 26.4 0 0 1-.776 4.597c.264-.41 1.055-1.566 1.128-1.64.981-1.142 3.572-2.782 5.139-2.123a2.01 2.01 0 0 1 1.077 1.232 2 2 0 0 1-.198 1.623 4.14 4.14 0 0 1-2.973 1.743"/><path fill="#121212" d="M962.71 590.443s-.542-1.977-.556-2.109c-.22-1.464.263-4.524 1.786-5.256a2 2 0 0 1 2.321.487c.189.21.331.459.417.728a4.2 4.2 0 0 1-.732 3.455 14.2 14.2 0 0 1-3.236 2.695M193.176 177.094H71.558a.73.73 0 0 1-.718-.6.764.764 0 0 1 .454-.82c4.818-1.919 12.432-5.242 13.69-6.502.516-.633.953-1.326 1.304-2.064a18.038 18.038 0 0 1 10.484-9.62 15.56 15.56 0 0 1 10.718.088c2.269.703 2.489.615 2.767-.234.908-2.709 2.797-8.376 7.878-11.348a.71.71 0 0 1 .809.047.748.748 0 0 1-.077 1.227c-4.598 2.679-6.37 7.994-7.219 10.542s-2.723 1.743-4.597 1.172a14.13 14.13 0 0 0-9.796-.118 16.73 16.73 0 0 0-9.678 8.947c-.411.864-.933 1.672-1.553 2.401-1.303 1.289-6.955 3.807-10.762 5.418h117.914a.733.733 0 0 1 0 1.464M213.968 177.094h-14.745a.732.732 0 0 1 0-1.464h14.115c.381-2.636 1.567-13.266-2.928-18.801-2.255-2.753-5.857-2.401-9.606-2.035-4.392.439-9.502.937-11.713-4.744-.82-1.142-11.275-15.462-23.662-16.59-11.245-1.025-16.721 6.516-20.704 12.021q-.879 1.2-1.669 2.241c-2.68 3.44-5.037 2.167-7.761.702a18.83 18.83 0 0 0-9.795-2.899.733.733 0 0 1-.518-1.25.73.73 0 0 1 .518-.214 20.5 20.5 0 0 1 10.483 3.016c2.739 1.465 3.983 2.153 5.857-.307.527-.674 1.069-1.464 1.64-2.211 4.188-5.784 9.957-13.705 21.964-12.622 13.514 1.23 24.306 16.634 24.76 17.293a.4.4 0 0 1 .087.146c1.772 4.73 5.682 4.393 10.25 3.91 3.997-.396 8.141-.806 10.879 2.562 5.608 6.838 3.295 20.03 3.192 20.587a.72.72 0 0 1-.644.659"/><path fill="#121212" d="M138.224 171.632h-.088a.73.73 0 0 1-.645-.805 10.17 10.17 0 0 1 3.046-5.857.73.73 0 0 1 1.193.57.73.73 0 0 1-.197.499 8.9 8.9 0 0 0-2.592 4.92.72.72 0 0 1-.717.673M155.003 165.146a18 18 0 0 1-3.88-.586 12 12 0 0 0-6.589-.234.73.73 0 0 1-.922-.454.744.744 0 0 1 .468-.937 13.17 13.17 0 0 1 7.321.205c2.621.585 4.876 1.098 6.926-.674 1.464-1.2 1.86-3.558 2.343-6.062.805-4.217 1.801-9.444 8.39-9.854 9.927-.615 18.39 7.731 18.742 8.083a.74.74 0 0 1 .216.519.74.74 0 0 1-.216.52.75.75 0 0 1-1.04 0c0-.088-8.375-8.258-17.57-7.672-5.462.351-6.223 4.392-7.043 8.668-.527 2.767-1.025 5.374-2.826 6.911a6.2 6.2 0 0 1-4.32 1.567M509.374 37.525H409.075a.75.75 0 0 1-.718-.6.76.76 0 0 1 .454-.82c3.807-1.465 10.25-4.393 11.245-5.33a8.5 8.5 0 0 0 1.054-1.684 15.02 15.02 0 0 1 8.713-8.024 12.87 12.87 0 0 1 8.917 0c1.903.585 1.947.468 2.137-.103.747-2.255 2.314-6.955 6.545-9.43a.747.747 0 0 1 1.011.264.75.75 0 0 1-.264.996c-3.763 2.196-5.212 6.545-5.857 8.624-.644 2.08-2.416 1.464-3.953 1.054a11.52 11.52 0 0 0-7.995-.088 13.7 13.7 0 0 0-7.921 7.322 9 9 0 0 1-1.303 2.02c-1.011 1.01-5.228 2.929-8.332 4.246h96.639a.73.73 0 0 1 .732.733.733.733 0 0 1-.805.82M526.535 37.525h-12.153a.734.734 0 0 1-.732-.733.733.733 0 0 1 .732-.732h11.582c.322-2.328 1.201-10.85-2.445-15.3-1.816-2.212-4.73-1.934-7.805-1.626-3.719.366-7.921.776-9.766-3.983-.732-1.025-9.298-12.694-19.415-13.617-9.21-.835-13.691 5.344-16.971 9.854a38 38 0 0 1-1.376 1.86c-2.27 2.928-4.261 1.86-6.545.615a15.54 15.54 0 0 0-8.024-2.328.734.734 0 0 1-.732-.732.733.733 0 0 1 .732-.733c3.077.033 6.088.898 8.712 2.504 2.255 1.216 3.192 1.728 4.7-.22.439-.556.879-1.17 1.347-1.815 3.295-4.54 8.244-11.377 18.303-10.455 11.201 1.01 20.148 13.764 20.499 14.306q.06.064.088.146c1.464 3.807 4.598 3.5 8.287 3.134 3.178-.308 6.78-.66 9.093 2.167 4.656 5.696 2.724 16.619 2.65 17.087a.73.73 0 0 1-.761.6"/><path fill="#121212" d="M464.057 33.03h-.088a.73.73 0 0 1-.645-.806 8.52 8.52 0 0 1 2.607-4.89.736.736 0 0 1 1.01 1.068 7.06 7.06 0 0 0-2.094 3.968.746.746 0 0 1-.79.66M477.908 27.67a15.7 15.7 0 0 1-3.265-.483 9.8 9.8 0 0 0-5.359-.205.734.734 0 0 1-.923-.454.7.7 0 0 1 .038-.56.72.72 0 0 1 .431-.362 11.03 11.03 0 0 1 6.15.146c2.196.498 3.938.893 5.593-.512 1.127-.967 1.464-2.929 1.889-4.935.659-3.514 1.464-7.892 7.043-8.228 8.228-.542 15.257 6.413 15.55 6.706a.74.74 0 0 1 .16.8.7.7 0 0 1-.16.24.75.75 0 0 1-1.04 0s-6.882-6.78-14.423-6.297c-4.392.278-5.037 3.573-5.695 7.058-.44 2.298-.85 4.392-2.372 5.769a5.26 5.26 0 0 1-3.617 1.317M956.077 173.755H855.778a.74.74 0 0 1-.864-.6.746.746 0 0 1 .6-.864c3.807-1.464 10.25-4.319 11.246-5.344a8.4 8.4 0 0 0 1.054-1.669 15.04 15.04 0 0 1 8.712-7.995 12.93 12.93 0 0 1 8.917.073c1.904.586 1.933.454 2.123-.117.762-2.255 2.328-6.955 6.56-9.429a.72.72 0 0 1 .996.263.748.748 0 0 1-.264 1.01c-3.748 2.197-5.198 6.531-5.857 8.625s-2.416 1.464-3.939 1.039a11.53 11.53 0 0 0-7.994-.088 13.702 13.702 0 0 0-7.922 7.322 9 9 0 0 1-1.303 2.005c-1.025 1.011-5.227 2.929-8.331 4.247h96.638a.733.733 0 0 1 .732.732.7.7 0 0 1-.043.316.724.724 0 0 1-.762.474M973.223 173.755h-12.138a.733.733 0 0 1 0-1.464h11.465c.322-2.328 1.2-10.835-2.445-15.286-1.816-2.226-4.73-1.933-7.805-1.64-3.719.366-7.936.791-9.766-3.983-.732-1.01-9.298-12.695-19.416-13.602-9.21-.85-13.69 5.329-16.97 9.854-.483.659-.937 1.288-1.376 1.859-2.27 2.929-4.246 1.845-6.56.601a15.4 15.4 0 0 0-8.009-2.328.734.734 0 0 1-.732-.733.73.73 0 0 1 .732-.732 17.03 17.03 0 0 1 8.785 2.504c2.255 1.23 3.192 1.728 4.7-.22.439-.556.879-1.171 1.347-1.815 3.295-4.525 8.288-11.362 18.288-10.455 11.216 1.025 20.163 13.764 20.499 14.306a.6.6 0 0 1 .088.161c1.465 3.807 4.598 3.485 8.288 3.133 3.177-.307 6.779-.673 9.078 2.153 4.671 5.695 2.738 16.633 2.665 17.087a.735.735 0 0 1-.718.6"/><path fill="#121212" d="M910.76 169.26h-.088a.73.73 0 0 1-.644-.805 8.6 8.6 0 0 1 2.547-4.891.733.733 0 0 1 1.04 0 .71.71 0 0 1 .164.792.7.7 0 0 1-.164.233 7.12 7.12 0 0 0-2.079 3.983.75.75 0 0 1-.776.688M924.597 163.916a14.6 14.6 0 0 1-3.251-.498 9.65 9.65 0 0 0-5.359-.19.8.8 0 0 1-.298.034.774.774 0 0 1-.668-.532.77.77 0 0 1 .235-.821.8.8 0 0 1 .263-.146 11 11 0 0 1 6.149.162c2.211.497 3.954.893 5.608-.528 1.128-.966 1.465-2.928 1.889-4.934.659-3.514 1.464-7.877 7.029-8.229 8.258-.527 15.271 6.413 15.564 6.706a.75.75 0 0 1 0 1.04.74.74 0 0 1-.52.216.73.73 0 0 1-.519-.216c0-.073-6.838-6.765-14.423-6.282-4.393.279-5.037 3.558-5.696 7.043-.439 2.299-.849 4.393-2.372 5.769a5.3 5.3 0 0 1-3.631 1.406M858.122 356.578l-32.696-74.221-88.439 38.962-20.923-47.514-10.66-229.78 64.704-28.508 87.019 197.538 28.039-12.343 20.412 46.328-28.04 12.358 32.71 74.221zM760.43 255.664l44.57-19.65-59.505-135.089z"/><path fill="#121212" d="m857.74 357.544-32.696-74.221-88.424 38.963-21.29-48.451-10.732-230.278 65.889-29.006.308.674 86.726 196.864 28.025-12.388 20.997 47.675-28.04 12.358 32.711 74.222zm-31.949-76.139.293.673 32.403 73.563 50.794-22.374-32.696-74.235 28.025-12.344-19.826-45.01-28.025 12.358-.307-.673-86.726-196.88-63.576 28.011 10.63 229.136 20.587 46.723zm-65.992-24.599L744.322 96.459l61.643 139.936zm-13.178-151.342 14.408 149.19 42.974-18.933z"/><path fill="#F35F0F" d="m851.021 359.814-32.696-74.221-88.439 38.948-20.894-47.514-10.689-229.78 64.704-28.494 87.018 197.538 28.04-12.358 20.411 46.343-28.025 12.387 32.696 74.236zm-97.693-100.929 44.571-19.65-59.506-135.088z"/><path fill="#121212" d="m850.64 360.765-32.696-74.221-88.454 38.963-21.29-48.451-10.688-230.278 65.89-28.991.307.659 86.726 196.879 28.039-12.358 20.997 47.675L871.432 263l32.71 74.221zm-31.95-76.139.293.674 32.403 73.547 50.794-22.373-32.696-74.221 28.04-12.358-19.826-44.996-28.039 12.373-.308-.659L762.626 19.72l-63.577 27.996 10.63 229.135 20.587 46.723zm-65.992-24.657L737.221 99.695l61.644 139.921zM739.52 108.612l14.408 149.19 42.975-18.933zM764.032 397.371s-5.213 34.834-3.251 46.562c1.962 11.729 27.996 63.811 27.996 63.811v7.16l-19.869 9.766 5.857 13.339 8.141-1.947-7.819 37.118 16.926 3.572 21.817-47.528s37.762-11.714 38.407-14.642c.644-2.929-6.18-48.188-6.18-48.188s-8.463-40.998-13.997-54.688a273 273 0 0 0-12.358-26.049z"/><path fill="#121212" d="m792.451 577.587-18.215-3.851 7.717-36.693-7.599 1.83-6.399-14.554 20.104-9.811v-6.545c-1.86-3.704-26.078-52.36-27.996-63.854s3.045-45.391 3.265-46.782v-.498l.498-.117 56.197-11.831.263.483a280 280 0 0 1 12.402 26.122c5.506 13.573 13.954 54.41 14.042 54.82.703 4.686 6.838 45.508 6.179 48.481s-26.898 11.435-38.494 15.037zm-16.487-4.978 15.638 3.309 21.714-47.295.308-.102c17.571-5.462 36.898-12.285 37.938-14.159.439-1.991-3.47-29.724-6.208-47.865-.088-.366-8.522-40.998-13.969-54.528a275 275 0 0 0-12.065-25.492l-54.689 11.509c-.615 4.319-4.963 35.141-3.177 45.83 1.918 11.465 27.674 63.078 27.923 63.591l.087.161v7.79l-19.635 9.649 5.33 12.153 8.668-2.079z"/><path fill="#fff" d="m792.335 515.241-.615-1.333 24.116-11.099-19.796-51.115-12.681-3.807.41-1.406 13.369 4.012 20.557 53.063zM810.139 530.062l-22.455 4.565.291 1.435 22.456-4.565zM745.349 311.831l-18.186 14.189-4.393-8.786-12.123 6.809s-.454 38.436 2.796 39.988 43.151-21.964 43.151-21.964 2.665 42.302 2.006 48.627 3.66 9.327 6.662 8.99 59.608-7.657 60.941-9.312a12.58 12.58 0 0 0 2.006-8.668c-.674-2.665-12.988-48.964-12.988-48.964s33.677 5.33 34.966 2.343c1.288-2.987 11.318-31.642 11.318-31.642l-16.985-3.997-6.325 9.649s-36.298-14.979-47.953-14.979-41.233 15.052-44.893 17.717"/><path fill="#121212" d="M764.85 400.519a6.53 6.53 0 0 1-4.524-2.006 9.35 9.35 0 0 1-2.387-7.819c.586-5.608-1.464-40.412-1.932-47.309-10.47 6.121-39.534 22.842-42.8 21.305-3.265-1.538-3.323-31.525-3.221-40.647v-.425l13.178-7.409 4.261 8.683 17.497-13.646c3.793-2.768 33.677-17.791 45.391-17.791 11.011 0 42.872 12.842 47.675 14.818l6.282-9.59 18.273 4.304-.263.762c-.41 1.171-10.03 28.713-11.348 31.7s-23.838 0-34.644-1.728c1.86 6.999 12.095 45.391 12.695 47.88a13.18 13.18 0 0 1-2.138 9.298c-1.669 2.094-60.852 9.532-61.497 9.591a4 4 0 0 1-.498.029m-7.54-59.608v1.186c.117 1.727 2.665 42.462 1.991 48.758a7.98 7.98 0 0 0 1.977 6.618 4.95 4.95 0 0 0 3.88 1.567c4.261-.483 57.954-7.511 60.545-9.151a11.9 11.9 0 0 0 1.772-7.936c-.659-2.621-12.856-48.481-12.988-48.949l-.278-1.084 1.098.176c15.726 2.489 32.828 4.188 34.219 2.709 1.157-2.621 9.415-26.18 11.011-30.749l-15.696-3.704-6.384 9.737-.557-.22c-.366-.161-36.298-14.935-47.675-14.935s-40.661 14.745-44.439 17.512l-18.888 14.745-4.393-8.917-11.084 6.237c-.205 18.201.63 37.631 2.401 38.89 2.255.688 23.56-10.777 42.463-21.861z"/><path fill="#121212" d="m838.522 308.487-.549 1.357 8.577 3.474.549-1.357zM792.684 336.943l-.219-1.45 17.688-2.635-15.711-2.167.205-1.45 25.784 3.543zM716.083 337.418l-2.757 3.132 1.099.968 2.757-3.133zM726.589 325.482l-7.71 8.76 1.099.968 7.71-8.761zM774.882 387.122l-.82-1.216c9.371-6.281 23.794-25.668 31.569-36.605l1.186.834c-7.79 11.026-22.344 30.573-31.935 36.987M808.997 347.016l-1.216-.834a196 196 0 0 0 2.08-3.031l1.215.82s-.762 1.142-2.079 3.045M769.025 387.81l-.879-1.172a54 54 0 0 0 5.974-5.505l1.055 1.01a55 55 0 0 1-6.15 5.667M777.167 380.035l-1.069-.996c5.754-6.267 11.377-13.486 11.421-13.559l1.171.893c-.059.074-5.711 7.351-11.523 13.662"/><path fill="#fff" d="m710.718 324.043-1.611-36.488s-6.545-12.519-6.691-13.5a134 134 0 0 1 3.163-15.272c.703-2.123 4.392 0 6.281 3.792s.967 8.946.967 8.946 4.304 6.443 5.066 9.357a15.7 15.7 0 0 1-.644 7.175l5.593 29.137z"/><path fill="#121212" d="m710.032 325.273-1.654-37.484c-1.626-3.119-6.531-12.578-6.677-13.588-.191-1.245 2.591-13.822 3.192-15.609a1.85 1.85 0 0 1 1.654-1.332c1.845-.132 4.481 2.079 5.96 5.037a16.77 16.77 0 0 1 1.083 9.107c.806 1.216 4.305 6.633 5.008 9.342a15.8 15.8 0 0 1-.586 7.394l5.623 29.475zm-3.309-66.549h-.073c-.176 0-.293.073-.381.337a142 142 0 0 0-3.133 14.95c.19.805 4.158 8.565 6.603 13.251l.088.307 1.552 35.259 10.645-5.974-5.535-28.816v-.176a15 15 0 0 0 .615-6.75c-.717-2.767-4.919-9.078-4.963-9.137l-.161-.249v-.278s.849-5.007-.908-8.492c-1.216-2.665-3.353-4.232-4.349-4.232"/><path fill="#121212" d="m709.957 273.205-1.464-.19c.234-1.728-1.186-7.541-1.874-10.25-.147-.629-.264-1.142-.352-1.464a2.61 2.61 0 0 1 .308-2.006 3.3 3.3 0 0 1 1.932-1.318l.323 1.465-.162-.718.162.718a1.27 1.27 0 0 0-.917.529 1.28 1.28 0 0 0-.211 1.037c.073.337.19.835.351 1.464 1.055 4.159 2.153 8.888 1.904 10.733"/><path fill="#fff" d="M844.594 297.951s25.287-42.961 27.6-44.205c2.314-1.245 20.016-.776 20.016-.776s6.823-9.459 7.746-8.375l.937 1.098s2.475-1.465 3.251-.63l.776.776s1.713-1.391 2.635-.922c.923.468.937 1.859.937 1.859s1.86-1.083 1.464.923c-.395 2.006-6.208 11.948-8.521 13.339s-26.063 1.464-26.063 1.464l-12.871 38.157z"/><path fill="#121212" d="m862.925 301.392-19.503-2.929.542-.937c4.246-7.204 25.506-43.194 27.893-44.468s16.941-.937 19.987-.864c2.372-3.28 6.325-8.39 7.862-8.449a.95.95 0 0 1 .806.337l.556.644c.981-.468 2.709-1.098 3.602-.219l.322.336a3.19 3.19 0 0 1 2.929-.629 2.4 2.4 0 0 1 1.171 1.464 1.46 1.46 0 0 1 1.113.205c.483.351.63.996.425 1.889-.513 2.24-6.37 12.285-8.874 13.793-2.284 1.376-20.923 1.464-25.902 1.464zm-17.146-4.012 16.107 2.386 12.841-38.069h.527c9.093 0 24.116-.352 25.682-1.289 2.109-1.259 7.761-10.996 8.185-12.87v-.293q-.192.059-.366.161l-1.098.644v-1.274c0-.249-.102-.995-.527-1.215s-1.171.293-1.845.849l-.512.41-1.245-1.23a4.4 4.4 0 0 0-2.387.732l-.512.293-1.113-1.288c-1.113.688-4.29 4.583-6.823 8.082l-.22.308h-.395c-6.75-.176-18.069-.147-19.635.688-1.67 1.215-16.663 26.019-26.664 42.975"/><path fill="#121212" d="m894.229 258.27-.952-1.098c.82-.732 4.715-7.672 6.97-11.889l1.289.688c-.996 1.918-6.018 11.245-7.307 12.299M904.3 245.512l-7.292 13.335 1.285.702 7.291-13.335zM907.872 246.421l-6.974 11.781 1.26.746 6.974-11.782z"/><path fill="#fff" d="m706.43 322.315 3.558 10.586 18.332-12.768-4.408-9.458z"/><path fill="#121212" d="m709.607 334.058-4.056-12.036 18.669-12.431 5.022 10.791zm-2.314-11.362 3.075 9.122 17.029-11.86-3.763-8.2z"/><path fill="#fff" d="M816.29 255.547a47.2 47.2 0 0 1-1.669 11.992c-1.669 5.33 3.002 9.986 1.669 11.714a25.7 25.7 0 0 1-5.666 3.997s-1.991 8.99-5.33 10.249-12.651-2.664-12.651-2.664-8.331-10.66-2.665-19.972c5.667-9.313 26.312-15.316 26.312-15.316"/><path fill="#121212" d="M803.534 294.524c-4.07 0-10.352-2.65-11.186-2.928l-.176-.073-.102-.147c-.367-.454-8.581-11.172-2.724-20.806s25.888-15.404 26.737-15.653l.937-.263v.966a47.3 47.3 0 0 1-1.699 12.212c-.893 2.84.191 5.505 1.055 7.657.732 1.787 1.303 3.207.483 4.232a24 24 0 0 1-5.594 4.027c-.439 1.83-2.372 9.195-5.695 10.527a5.6 5.6 0 0 1-2.036.249m-10.425-4.261c2.65 1.113 9.474 3.558 11.919 2.577s4.393-7.409 4.876-9.81l.073-.322.293-.161a23.8 23.8 0 0 0 5.447-3.807c.293-.366-.235-1.655-.689-2.782-.907-2.24-2.152-5.301-1.112-8.639a44.4 44.4 0 0 0 1.61-10.762c-4.099 1.303-20.162 6.853-24.891 14.642-5.023 8.258 1.537 17.82 2.474 19.064"/><path fill="#121212" d="M810.285 272.063c-.395 1.245-1.127 2.109-1.625 1.948s-.6-1.289-.205-2.534c.396-1.244 1.128-2.108 1.625-1.947s.601 1.303.205 2.533M808.105 266.206l-1.201-.849a4.395 4.395 0 0 1 5.857-1.318l-.732 1.274a2.93 2.93 0 0 0-3.924.893M808.339 284.48a7.13 7.13 0 0 1-6.413-4.818l1.464-.395a5.63 5.63 0 0 0 1.985 2.664 5.63 5.63 0 0 0 3.14 1.084z"/><path fill="#121212" d="M823.287 239.894s3.66 8.669-.674 14.32c-4.334 5.652-15.316 6.004-21.963 14.643-6.648 8.638-3.998 19.986-2.328 23.647 1.669 3.66-1.011 17.658-5.667 19.65s-12.329 3.338-10.249 7.994 4.319 12.651 2.328 16.648c-1.992 3.998-14.642 10.997-24.643 7.321-10.001-3.675-9.664-10.996-6.999-15.989s-2.665-2.665-8.331-10.659c-5.667-7.995-12.651-21.964-3.661-28.977s15.989-9.327 16.663-15.989-2.768-22.476 5.857-29.138 13.558-5.081 13.558-5.081 8.185-9.078 17.19-9.078 12.651 5.666 12.651 5.666 11.26-8.961 16.268 5.022"/><path fill="#121212" d="M766.097 345.904a18.3 18.3 0 0 1-6.311-1.069c-4.393-1.611-7.233-4.041-8.449-7.204a12.18 12.18 0 0 1 1.055-9.825c1.127-2.094.805-2.284-1.245-3.514a20.9 20.9 0 0 1-7.028-6.369c-3.514-4.949-14.115-21.729-3.514-29.973 2.518-1.962 4.89-3.573 6.969-4.978 5.389-3.632 8.947-6.048 9.401-10.513a53 53 0 0 0 0-6.092c-.279-7.716-.674-18.273 6.193-23.559 7.438-5.725 12.27-5.549 13.749-5.3 1.582-1.655 9.078-9.005 17.439-9.005a16.11 16.11 0 0 1 12.797 5.388c1.465-1.04 5.652-3.426 9.796-2.255 3.104.893 5.476 3.588 7.057 7.995.249.586 3.705 9.18-.761 15.037-2.05 2.68-5.476 4.217-9.107 5.857-4.393 1.948-9.313 4.173-12.885 8.786-6.487 8.433-3.72 19.635-2.241 22.885 1.186 2.607.44 9.444-1.566 14.642-.864 2.226-2.343 5.081-4.393 5.989-.981.425-2.094.805-3.163 1.186-2.928 1.025-6.12 2.167-6.882 3.895a2.37 2.37 0 0 0 .103 1.947c2.328 5.447 4.393 13.178 2.313 17.278-1.757 3.368-10.542 8.771-19.327 8.771m9.62-107.02c-1.889 0-5.857.659-11.714 5.096-6.267 4.817-5.857 14.935-5.623 22.329a50 50 0 0 1 0 6.296c-.512 5.154-4.495 7.848-10.03 11.582-2.064 1.464-4.392 2.928-6.896 4.92-9.576 7.438.498 23.295 3.807 27.966a19.26 19.26 0 0 0 6.589 5.96c2.064 1.244 3.572 2.137 1.786 5.461a10.65 10.65 0 0 0-.966 8.61c1.054 2.753 3.602 4.89 7.57 6.355 9.517 3.484 21.875-3.236 23.735-6.97 1.684-3.368 0-10.484-2.343-16.107a3.82 3.82 0 0 1-.103-3.118c1.011-2.314 4.393-3.514 7.732-4.686 1.112-.395 2.152-.761 3.074-1.157 1.304-.556 2.607-2.386 3.676-5.168 2.006-5.184 2.518-11.509 1.61-13.5-1.684-3.719-4.553-15.345 2.416-24.394 3.793-4.935 8.917-7.233 13.442-9.254 3.602-1.625 6.721-3.016 8.536-5.403 4.027-5.257.615-13.515.571-13.588-1.464-3.953-3.47-6.34-6.091-7.087-4.393-1.259-9.049 2.387-9.093 2.416l-.629.498-.44-.674c-.146-.219-3.587-5.329-12.035-5.329s-16.561 8.785-16.634 8.785l-.322.351-.454-.146a5.2 5.2 0 0 0-1.201-.044z"/><path fill="#fff" d="m843.261 294.188-2.988 7.657 21.642 7.658 3.001-11.992z"/><path fill="#121212" d="m862.427 310.47-23.12-8.185 3.484-8.917 23.033 3.543zm-21.202-9.064 20.177 7.146 2.606-10.44-20.309-3.119z"/><path fill="#fff" d="M768.906 524.67s-42.799 15.008-42.272 18.098 10.571 30.192 14.642 34.585c4.07 4.392 5.945 6.969 6.706 3.353s-.249-7.995-.249-9.811 2.065-22.446 2.841-23.427 24.145-9.415 24.145-9.415z"/><path fill="#121212" d="M746.885 583.151c-1.186 0-2.489-1.464-4.67-3.778l-1.465-1.464c-4.261-4.524-14.422-32.052-14.905-34.951-.147-.952-.41-2.533 21.406-11.025a731 731 0 0 1 21.363-7.893l.645-.234 6.442 14.642-.732.264c-8.683 3.119-22.827 8.361-23.867 9.224-.615 1.333-2.635 21.217-2.635 22.974 0 .498.088 1.259.19 2.123.42 2.595.42 5.239 0 7.834-.19.908-.527 1.991-1.464 2.24q-.151.042-.308.044m-19.518-40.398c.674 3.309 10.557 29.899 14.511 34.102l1.464 1.464c1.376 1.464 3.075 3.397 3.602 3.309 0 0 .22-.146.425-1.127a23.4 23.4 0 0 0 0-7.321 20 20 0 0 1-.205-2.299c0-1.274 1.947-22.549 2.928-23.911.761-1.025 14.862-6.208 23.735-9.4l-5.271-12.007c-19.269 6.78-39.929 14.994-41.189 17.19"/><path fill="#fff" d="m743.663 549.488-4.803-13.412c-6.999 2.929-12.417 5.593-12.226 6.692.512 3.104 10.571 30.192 14.642 34.584s5.945 6.97 6.706 3.354c.761-3.617-.249-7.995-.249-9.811s2.065-22.446 2.841-23.427z"/><path fill="#121212" d="M746.886 583.151c-1.186 0-2.489-1.464-4.671-3.778l-1.464-1.464c-4.261-4.524-14.423-32.052-14.906-34.951-.132-.82-.337-2.05 12.665-7.497l.718-.307 4.832 13.485 8.419-2.489-1.318 1.772c-.673 1.464-2.694 21.275-2.694 23.032 0 .498.088 1.245.191 2.123a24.6 24.6 0 0 1 0 7.834c-.191.907-.528 1.991-1.465 2.24a1.2 1.2 0 0 1-.307 0m-19.518-40.398c.673 3.309 10.557 29.899 14.51 34.102l1.464 1.464c1.377 1.464 3.075 3.397 3.602 3.309 0 0 .22-.146.425-1.127a23.4 23.4 0 0 0 0-7.321 20 20 0 0 1-.205-2.299c0-1.098 1.464-17.234 2.533-22.403l-6.384 1.889-4.788-13.339c-9.356 3.939-10.908 5.3-11.157 5.725"/><path fill="#fff" d="M775.102 573.18s-12.226 42.125-11.831 44.424 12.051 5.857 16.516 7.189c4.466 1.333 15.829.82 18.86-.41s4.934-3.66 2.547-4.553c-2.386-.894-8.946-2.533-8.946-2.533l-9.576-12.593 9.356-27.952z"/><path fill="#121212" d="M787.867 626.287a33.7 33.7 0 0 1-8.272-.791c-6.165-1.742-16.575-5.081-17.044-7.76-.41-2.357 9.796-37.704 11.846-44.761l.19-.659 18.39 3.895-9.502 28.362 9.195 12.065c1.245.322 6.618 1.713 8.785 2.504a2.02 2.02 0 0 1 1.538 1.874c0 1.64-2.036 3.221-4.085 4.056a39 39 0 0 1-11.041 1.215m-12.255-52.258c-4.832 16.677-11.714 41.555-11.626 43.458.19 1.069 6.223 3.836 16.004 6.604 4.393 1.23 15.433.805 18.376-.381 2.079-.849 3.177-2.094 3.163-2.68 0-.19-.191-.366-.586-.512-2.328-.864-8.785-2.504-8.873-2.518h-.249l-9.972-13.105.118-.366 9.107-27.176z"/><path fill="#fff" d="M801.238 619.829c-2.387-.878-8.946-2.533-8.946-2.533l-9.576-12.592-2.226 5.857-14.642-4.642c-1.567 6.633-2.723 10.938-2.592 11.714.41 2.299 12.051 5.857 16.517 7.189 4.466 1.333 15.828.82 18.859-.41s4.949-3.689 2.606-4.583"/><path fill="#121212" d="M787.869 626.287a33.7 33.7 0 0 1-8.273-.791c-6.165-1.742-16.575-5.08-17.044-7.76-.117-.703.293-2.46 1.465-7.468.322-1.347.702-2.928 1.098-4.553l.175-.776 14.643 4.685 2.445-6.413 10.249 13.427c1.245.322 6.619 1.713 8.786 2.504a2.02 2.02 0 0 1 1.537 1.874c0 1.64-2.035 3.221-4.085 4.056a39 39 0 0 1-10.996 1.215m-21.466-19.459-.922 3.792a59 59 0 0 0-1.464 6.867c.19 1.069 6.223 3.836 16.004 6.604 4.392 1.23 15.432.805 18.375-.381 2.08-.849 3.178-2.094 3.163-2.68 0-.19-.19-.366-.586-.512-2.328-.864-8.785-2.504-8.873-2.518h-.249l-8.946-11.714-1.991 5.242zM580.388 421.238q-28.2 5.183-49.066-4.056a78.3 78.3 0 0 1-34.233-29.695q-13.354-20.499-18.713-49.563l-28.23-153.202q-5.52-29.957-.791-54.176 4.73-24.218 20.968-40.295 16.209-16.107 45.186-21.421 28.581-5.257 49.271 4.011 20.688 9.27 33.677 30.237 13.046 20.938 18.566 50.896l28.23 153.201q5.359 29.124.176 52.99a78.24 78.24 0 0 1-21.363 39.944q-16.254 16.077-43.678 21.129M569.89 363.84q10.44-1.932 13.749-9.956a44.05 44.05 0 0 0 3.031-18.23 124 124 0 0 0-1.831-18.639l-27.82-150.668a151 151 0 0 0-4.92-19.167 44.2 44.2 0 0 0-9.224-16.414q-6.003-6.516-16.809-4.539t-14.291 10.249a42.2 42.2 0 0 0-2.929 18.655 148 148 0 0 0 2.197 19.679l27.747 150.668a123 123 0 0 0 4.919 18.083 40.8 40.8 0 0 0 9.723 15.872q6.354 6.267 16.458 4.407"/><path fill="#121212" d="M561.104 423.815a73.8 73.8 0 0 1-30.089-5.945 79.43 79.43 0 0 1-34.541-29.973c-8.917-13.646-15.243-30.411-18.816-49.783l-28.23-153.26c-3.675-19.986-3.938-38.304-.79-54.454a76.7 76.7 0 0 1 21.143-40.676c10.864-10.777 26.195-18.04 45.566-21.612 19.123-3.514 35.83-2.152 49.696 4.07 13.866 6.224 25.346 16.488 34.131 30.5s14.979 31.203 18.654 51.16l28.201 153.201c3.587 19.416 3.646 37.353.176 53.283a79.37 79.37 0 0 1-21.598 40.296c-10.864 10.776-25.682 17.951-44.029 21.333a107 107 0 0 1-19.474 1.86M535.07 67.673c-6.529.037-13.042.664-19.459 1.874-19.035 3.514-34.146 10.66-44.805 21.217a75.34 75.34 0 0 0-20.733 39.914c-3.119 15.975-2.841 34.102.805 53.913l28.23 153.201c3.543 19.225 9.796 35.815 18.61 49.3a78 78 0 0 0 33.912 29.416c13.705 6.077 30.075 7.424 48.641 4.012 18.054-3.338 32.608-10.366 43.253-20.938a77.85 77.85 0 0 0 21.202-39.534c3.426-15.74 3.367-33.472-.176-52.712l-28.23-153.23c-3.646-19.782-9.854-36.825-18.464-50.648a75.85 75.85 0 0 0-33.413-29.943 71.1 71.1 0 0 0-29.373-5.842m30.427 297.309a17.118 17.118 0 0 1-12.519-5.022 41.7 41.7 0 0 1-9.898-16.106 123.5 123.5 0 0 1-5.008-18.23l-27.82-150.668a151 151 0 0 1-2.226-19.752 43.2 43.2 0 0 1 2.929-19.035c2.401-5.725 7.394-9.327 14.832-10.703 7.439-1.377 13.325.234 17.483 4.758a45.1 45.1 0 0 1 9.371 16.692 148.5 148.5 0 0 1 4.949 19.255l27.82 150.668a124.5 124.5 0 0 1 1.845 18.757 45 45 0 0 1-3.089 18.522c-2.299 5.579-7.102 9.078-14.291 10.396a24.5 24.5 0 0 1-4.378.468m-34.702-238.491a26 26 0 0 0-4.612.439c-6.911 1.274-11.538 4.583-13.749 9.839a41.6 41.6 0 0 0-2.929 18.332 145 145 0 0 0 2.211 19.562l27.747 150.668a121 121 0 0 0 4.905 17.966 40.3 40.3 0 0 0 9.532 15.609c4.085 4.027 9.225 5.388 15.741 4.202 6.764-1.244 11.069-4.392 13.178-9.517a43.9 43.9 0 0 0 2.928-17.922 122 122 0 0 0-1.83-18.537l-27.82-150.668a151 151 0 0 0-4.905-19.035 43.4 43.4 0 0 0-9.064-16.107 14.937 14.937 0 0 0-11.333-4.831"/><path fill="#F35F0F" d="M571.998 423.171q-28.201 5.213-49.081-4.056a78.33 78.33 0 0 1-34.218-29.695q-13.354-20.499-18.713-49.563l-28.23-153.202q-5.506-29.958-.791-54.176t20.938-40.295q16.209-16.107 45.186-21.421 28.567-5.257 49.271 4.026 20.704 9.284 33.677 30.222 13.046 20.952 18.566 50.91l28.216 153.187q5.359 29.124.176 52.99a78.3 78.3 0 0 1-21.407 39.944q-16.166 16.077-43.59 21.129m-10.572-57.398q10.44-1.919 13.749-9.942a44.15 44.15 0 0 0 3.031-18.244 122 122 0 0 0-1.845-18.639l-27.747-150.669a149 149 0 0 0-4.934-19.166 44.1 44.1 0 0 0-9.21-16.414q-6.003-6.516-16.809-4.539t-14.291 10.249a42.4 42.4 0 0 0-2.928 18.655 153 153 0 0 0 2.225 19.664l27.82 150.653a122.5 122.5 0 0 0 4.92 18.083 40.9 40.9 0 0 0 9.591 15.917q6.369 6.237 16.428 4.392"/><path fill="#121212" d="M552.728 425.762a73.6 73.6 0 0 1-30.104-5.974 79.3 79.3 0 0 1-34.541-29.958c-8.917-13.661-15.242-30.426-18.83-49.783l-28.215-153.26c-3.675-19.972-3.939-38.304-.791-54.454a76.73 76.73 0 0 1 21.143-40.676c10.865-10.762 26.195-18.04 45.567-21.612 19.108-3.514 35.829-2.152 49.695 4.07a77.2 77.2 0 0 1 34.043 30.5c8.786 13.983 14.994 31.203 18.669 51.16l28.216 153.201c3.587 19.43 3.631 37.352.175 53.283a79.35 79.35 0 0 1-21.597 40.295c-10.864 10.777-25.682 17.952-44.029 21.334a107 107 0 0 1-19.401 1.874M526.68 69.606c-6.531.035-13.044.667-19.46 1.889-19.034 3.514-34.16 10.644-44.805 21.201a75.35 75.35 0 0 0-20.733 39.915c-3.119 15.975-2.855 34.116.791 53.913l28.23 153.201c3.543 19.225 9.795 35.815 18.61 49.3a77.95 77.95 0 0 0 33.911 29.431c13.705 6.062 30.075 7.409 48.642 3.997 18.053-3.324 32.608-10.367 43.253-20.938a77.86 77.86 0 0 0 21.202-39.534c3.426-15.74 3.367-33.458-.176-52.712l-28.186-153.216c-3.646-19.796-9.869-36.825-18.464-50.662s-19.826-23.837-33.414-29.943a71.3 71.3 0 0 0-29.401-5.842m30.368 297.324a17.14 17.14 0 0 1-12.519-5.037 41.56 41.56 0 0 1-9.898-16.106 123 123 0 0 1-4.95-18.171l-27.82-150.668a151 151 0 0 1-2.225-19.767 43.2 43.2 0 0 1 3.001-19.035c2.402-5.725 7.395-9.327 14.833-10.704 7.438-1.376 13.324.235 17.483 4.774a45.2 45.2 0 0 1 9.371 16.677 150.5 150.5 0 0 1 5.066 19.255l27.82 150.668a125 125 0 0 1 1.845 18.756 45 45 0 0 1-3.09 18.537c-2.298 5.564-7.101 9.064-14.29 10.382a24.6 24.6 0 0 1-4.627.439m-34.644-238.492a24.6 24.6 0 0 0-4.612.454c-6.926 1.274-11.538 4.583-13.749 9.825a41.8 41.8 0 0 0-2.928 18.332 148 148 0 0 0 2.225 19.562l27.747 150.668a122 122 0 0 0 4.891 17.966 40.2 40.2 0 0 0 9.546 15.608c4.085 4.027 9.225 5.403 15.741 4.203 6.75-1.245 11.069-4.393 13.178-9.518a43.5 43.5 0 0 0 2.928-17.922 121.6 121.6 0 0 0-1.83-18.537l-27.615-150.668a150 150 0 0 0-4.906-19.035 43.6 43.6 0 0 0-9.063-16.106 14.95 14.95 0 0 0-11.553-4.832"/><path fill="#fff" d="M478.317 229.996s12.944 11.597 14.833 11.597 3.777-5.667 6.75-1.626 0 8.639 0 8.639 11.875 12.959 9.986 15.389c-1.889 2.431-10.792 7.556-10.792 7.556l-1.888 22.666-24.292-6.75-.263-8.361-12.695-8.375s-6.736-11.333-2.153-22.388 20.514-18.347 20.514-18.347"/><path fill="#121212" d="m497.864 295.154-25.668-7.131-.263-8.522-12.519-8.243-.088-.147c-.278-.468-6.867-11.713-2.196-23.046s20.22-18.435 20.879-18.742l.44-.205.351.322c6.12 5.491 13.178 11.26 14.379 11.421.307 0 .937-.645 1.464-1.157.922-.937 1.947-2.006 3.309-1.918a3.64 3.64 0 0 1 2.562 1.757 8.43 8.43 0 0 1 .322 8.961c3.837 4.246 11.641 13.383 9.65 15.931-1.757 2.269-9.005 6.574-10.674 7.555zm-24.233-8.244 22.915 6.37 1.845-22.183.337-.191c2.445-1.464 9.107-5.461 10.586-7.321.791-1.039-3.851-7.775-9.956-14.437l-.381-.41.307-.483c.118-.161 2.651-4.217 0-7.804-.541-.732-1.039-1.128-1.464-1.157-.424-.029-1.464.761-2.152 1.464s-1.552 1.611-2.519 1.611c-1.889 0-10.82-7.761-14.964-11.465-2.548 1.259-15.696 8.097-19.708 17.761-4.115 9.942 1.303 20.279 2.035 21.597l12.856 8.478z"/><path fill="#121212" d="M478.317 229.996s-12.694 11.055-11.333 12.402 8.097 3.236 7.014 5.125c-1.084 1.889-4.056 7.833-4.056 7.833s5.403 2.929 5.139 4.583-1.625 3.236-2.43 2.929-8.639-2.929-9.444 1.347 2.694 8.361 5.666 9.722c2.972 1.362 7.819-1.625 7.819-1.625s-3.236 6.472-4.041 6.75-15.389-6.208-21.056-8.639c-5.666-2.43-10.791-5.93-9.444-11.875 1.347-5.944 2.929-13.485 8.097-17.805a104 104 0 0 0 9.444-9.18s-7.321-4.041-1.888-6.208a16.95 16.95 0 0 1 11.069 0s-1.889-5.931 2.929-4.847 7.306 4.349 6.515 9.488"/><path fill="#121212" d="M472.621 279.838c-.907 0-3.748-1.069-17.321-6.97l-4.012-1.727c-4.979-2.138-11.436-5.784-9.869-12.71l.102-.395c1.347-5.989 3.046-13.427 8.244-17.805a104 104 0 0 0 8.785-8.463c-1.274-.835-3.587-2.607-3.47-4.466.073-1.084.893-1.962 2.445-2.577a17.14 17.14 0 0 1 10.352-.395 4.66 4.66 0 0 1 .703-3.793 3.39 3.39 0 0 1 3.412-.703c5.403 1.201 7.906 4.847 7.043 10.25v.263l-.191.176c-5.154 4.495-10.747 10.03-11.172 11.465a17.7 17.7 0 0 0 2.519 1.347c2.547 1.201 4.246 2.079 4.627 3.295a1.458 1.458 0 0 1-.147 1.244c-.849 1.464-2.928 5.608-3.719 7.175 1.948 1.127 5.169 3.28 4.891 4.993a5.17 5.17 0 0 1-2.065 3.338 1.46 1.46 0 0 1-1.318.205c-3.426-1.142-6.237-1.347-7.57-.571a1.91 1.91 0 0 0-.922 1.362c-.732 3.924 2.577 7.702 5.242 8.917 2.137.966 5.857-.805 7.145-1.581l2.182-1.318-1.142 2.269c-3.383 6.75-4.203 7.029-4.481 7.117a.6.6 0 0 1-.293.058m-9.62-54.659a13.2 13.2 0 0 0-4.978.908c-.688.263-1.464.717-1.537 1.317 0 1.069 2.006 2.739 3.499 3.558l.805.454-.615.674a104 104 0 0 1-9.517 9.254c-4.817 4.056-6.457 11.245-7.76 17.014l-.088.395c-1.01 4.393 1.845 7.966 9.019 11.041l3.998 1.727c5.271 2.299 14.964 6.501 16.575 6.838a34 34 0 0 0 2.547-4.392c-1.801.761-4.392 1.464-6.442.615-2.929-1.362-6.999-5.638-6.091-10.514a3.37 3.37 0 0 1 1.625-2.357c2.357-1.376 6.486-.322 8.785.439a3.33 3.33 0 0 0 1.465-2.386c0-.586-2.255-2.446-4.759-3.822l-.615-.337.322-.629c.117-.249 2.928-5.989 4.056-7.863-.205-.776-2.475-1.86-3.836-2.504a13 13 0 0 1-3.061-1.742 1.16 1.16 0 0 1-.307-.85c.073-2.284 8.551-9.898 11.479-12.46.615-4.466-1.464-7.321-5.944-8.361-.981-.22-1.655-.117-2.021.278-.761.835-.322 2.929-.102 3.646l.468 1.464-1.464-.541a17.6 17.6 0 0 0-5.506-.864M499.094 271.551l-8.639 4.846 7.555 5.403z"/><path fill="#121212" d="m498.611 283.162-9.517-6.809 10.879-6.105zm-6.794-6.648 5.594 3.998.805-7.6zM477.043 243.833a5.1 5.1 0 0 1 .118-2.183 5.1 5.1 0 0 1 1.024-1.932 6.57 6.57 0 0 1 4.393-1.83v1.464a5.1 5.1 0 0 0-3.368 1.362 3.67 3.67 0 0 0-.762 2.929zM488.713 245.209c.981 1.216 1.172 2.694.425 3.309s-2.167.118-3.148-1.098c-.981-1.215-1.171-2.694-.425-3.309.747-.615 2.167-.117 3.148 1.098"/><path fill="#fff" d="M458.477 592.42s1.332 13.324 2.664 15.33 13.984 8.317 16.649 10.982c2.664 2.665-3.339 4.671-6.326 6.003-2.987 1.333-6.34.996-12.329-.673-5.988-1.67-11.713-6.663-15.315-8.317-3.602-1.655-12.988-4.671-12.329-6.999s12.329-21.319 12.329-21.319z"/><path fill="#121212" d="M467.394 626.287a32.5 32.5 0 0 1-8.39-1.464 41 41 0 0 1-10.835-5.623 42 42 0 0 0-4.598-2.753 95 95 0 0 0-3.016-1.244c-6.091-2.431-10.367-4.393-9.708-6.618s11.201-19.548 12.402-21.495l.308-.498 15.652 5.344v.469c.513 5.066 1.655 13.632 2.548 14.979.6.893 4.627 3.28 7.877 5.198a57.6 57.6 0 0 1 8.683 5.681 2.456 2.456 0 0 1 .849 2.255c-.395 1.977-3.484 3.28-6.208 4.393l-1.186.512a10.7 10.7 0 0 1-4.378.864m-23.208-37.967c-4.656 7.599-11.465 19.035-11.933 20.631-.337 1.186 6.34 3.851 8.785 4.846 1.201.483 2.27.908 3.075 1.274a39 39 0 0 1 4.803 2.929 39.6 39.6 0 0 0 10.41 5.417c6.179 1.713 9.166 1.889 11.831.703l1.215-.513c1.904-.805 5.096-2.152 5.345-3.353 0-.102.073-.424-.439-.937a61 61 0 0 0-8.405-5.461c-4.715-2.782-7.629-4.554-8.346-5.637-1.289-1.948-2.46-12.549-2.738-15.199z"/><path fill="#fff" d="M589.701 599.082s14.642 19.035 15.653 19.327c2.401.791 12.226-9.971 14.144-11.538a72.5 72.5 0 0 0 14.642-15.769c1.64-2.489 6.618-10.953 2.563-13.661-5.037-3.353-11.128 4.524-15.316 6.325-2.387 1.025-9.034 3.953-9.034 3.953z"/><path fill="#121212" d="M605.603 619.171a1.7 1.7 0 0 1-.483-.074c-.805-.263-6.194-6.852-16.004-19.562l-.542-.702 23.428-11.714s6.691-3.016 9.034-4.012a23.3 23.3 0 0 0 4.158-2.782c3.544-2.724 7.936-6.091 11.86-3.485 4.847 3.236-1.112 12.797-2.357 14.642a72.6 72.6 0 0 1-14.759 15.916c-.425.366-1.377 1.303-2.489 2.402-6.018 6.018-9.811 9.371-11.846 9.371m-14.789-19.826c5.462 7.043 13.881 17.717 14.877 18.42 1.303.351 8.405-6.662 10.747-8.976 1.172-1.171 2.109-2.094 2.592-2.489a71.4 71.4 0 0 0 14.452-15.652c2.474-3.749 5.857-10.616 2.767-12.666-3.089-2.05-6.808.879-10.147 3.426a23 23 0 0 1-4.48 2.929c-2.329.996-8.976 3.997-8.976 3.997z"/><path fill="#121212" d="M471.128 420.901s.996 16.985 2.328 19.035c1.333 2.05 6.004 17.57 6.004 17.57l-10.601 60.985-26.986 67.603 19.328 8.668 38.626-71.278s13.324-34.307 13.661-35.302c.337-.996 76.271 110.9 76.271 110.9l15.989-10.323-50.632-110.241-24.98-59.286z"/><path fill="#121212" d="m589.495 600.092-.41-.6c-24.101-35.507-69.067-101.529-75.407-109.904-2.314 6.047-12.739 32.901-13.178 34.16l-39.007 71.951-20.572-9.224 27.205-68.189 10.616-60.706c-1.86-6.252-4.92-15.902-5.857-17.293-1.377-2.05-2.284-16.472-2.46-19.342v-.761l60.209-1.699 25.169 59.755 50.882 110.797zm-76.139-112.657c.688 0 2.474 2.123 39.094 55.728 17.22 25.214 34.556 50.75 37.397 54.923l14.847-9.59-50.355-109.67-24.804-58.847-57.69 1.64c.41 6.53 1.303 16.574 2.167 17.863 1.347 2.035 5.608 16.238 6.077 17.849v.337l-10.704 61.087-26.722 66.959 18.069 8.097 38.304-70.678c4.568-11.714 13.353-34.409 13.602-35.141l.147-.425.454-.073z"/><path fill="#fff" d="m442.151 574.102-2.665 14.994 21.319 9.327 7.995-11.992z"/><path fill="#121212" d="m461.069 599.331-22.403-9.796 2.928-16.487 28.289 13.075zm-20.763-10.675 20.221 8.786 7.189-10.762-25.009-11.568z"/><path fill="#fff" d="m582.363 595.421 8.668 8.668 21.305-16.326-7.98-9.986z"/><path fill="#121212" d="m590.959 605.056-9.693-9.693 23.193-18.625 8.917 11.157zm-7.497-9.576 7.629 7.628 20.206-15.476-7.058-8.786z"/><path fill="#fff" d="M469.4 292.328s-8.902 32.916-7.819 41.554c1.084 8.639-1.889 90.138-1.889 90.138a117.6 117.6 0 0 0 42.097 3.499c22.71-2.43 35.888-6.721 35.888-6.721s-22.666-89.859-26.444-100.65-13.178-23.208-13.178-23.208z"/><path fill="#121212" d="M490.704 428.837a118.7 118.7 0 0 1-31.232-4.129l-.527-.161v-.556c0-.82 2.929-81.543 1.889-90.021s7.482-40.485 7.848-41.832l.176-.645 29.548 4.744.176.235c.088.117 9.561 12.621 13.324 23.427s26.239 99.816 26.473 100.709l.161.659-.644.22c-.132 0-13.559 4.392-36.049 6.779-3.702.388-7.421.578-11.143.571m-30.265-5.374a118.5 118.5 0 0 0 41.276 3.339 203.5 203.5 0 0 0 35.141-6.516c-2.093-8.302-22.695-89.771-26.253-99.918-3.412-9.767-11.714-21.026-12.944-22.783L470 293.192c-1.215 4.627-8.595 32.901-7.628 40.647.981 8.258-1.64 81.762-1.933 89.624"/><path fill="#fff" d="m470.22 283.689-3.514 10.528 36.43 9.444 1.083-12.138z"/><path fill="#121212" d="m503.794 304.583-38.069-9.854 3.968-11.904 35.273 8.127zm-36.137-10.879 34.878 9.035.937-10.645-32.769-7.468z"/><path fill="#fff" d="m554.133 414.034 7.57 1.889s3.236-4.598 5.667-5.403c2.431-.806 5.388-.264 8.361-.264 2.972 0 5.666-4.056 8.097-2.167s-1.347 4.056-2.709 4.598-7.819 1.889-7.819 1.889 15.374 4.583 16.458 4.583-.805 2.694-2.153 3.499-6.003 1.069-6.003 1.069-7.555 2.709-11.333 2.928c-3.778.22-13.764-2.928-13.764-2.928l-6.208-2.431-3.777-1.347z"/><path fill="#121212" d="M569.89 427.461c-4.159 0-13.178-2.929-13.515-3.017l-6.252-2.445-5.008-1.786 8.888-6.985 7.424 1.86c.907-1.215 3.514-4.524 5.739-5.257a16.2 16.2 0 0 1 6.062-.395c.835 0 1.684.088 2.533.088a7.2 7.2 0 0 0 3.236-1.303c1.64-.996 3.514-2.109 5.301-.703a2.34 2.34 0 0 1 1.069 2.211c-.308 2.152-3.91 3.617-3.939 3.631a52 52 0 0 1-5.154 1.318c5.681 1.669 12.768 3.704 13.529 3.748a.99.99 0 0 1 .996.733c.337 1.2-1.669 3.455-2.782 4.129-1.391.834-5.359 1.127-6.179 1.186a61.3 61.3 0 0 1-11.421 2.928zm-21.773-7.731 2.518.893 6.238 2.445s9.825 3.163 13.441 2.928a61.7 61.7 0 0 0 11.129-2.928h.205a19.6 19.6 0 0 0 5.607-.966 6.8 6.8 0 0 0 1.992-2.241c-2.636-.527-12.827-3.543-16.107-4.524l-2.782-.835 2.841-.585c1.786-.381 6.648-1.465 7.702-1.86s2.928-1.596 3.031-2.474c0-.103 0-.41-.513-.85-.966-.746-2.02-.19-3.66.791a8.07 8.07 0 0 1-3.983 1.464c-.879 0-1.742 0-2.606-.102a15.4 15.4 0 0 0-5.535.336c-1.801.601-4.393 3.895-5.301 5.125l-.278.41-7.702-1.933z"/><path fill="#fff" d="M478.039 307.175s-11.333 10.25-8.36 19.694c2.972 9.444 74.484 99.786 74.484 99.786l14.833-14.027-62.317-103.842"/><path fill="#121212" d="m544.075 427.797-.498-.629c-2.928-3.69-71.63-90.621-74.602-100.08-3.075-9.781 8.097-20.03 8.58-20.499l.981 1.099c-.117.087-10.952 10.044-8.155 18.932 2.796 8.888 67.5 90.928 73.855 98.981l13.837-13.075-62.039-103.389 1.259-.761 62.639 104.398z"/><path fill="#fff" d="m491.363 458.142-1.156.899 20.979 26.978 1.156-.899z"/><path fill="#121212" d="m244.35 383.607 18.624-78.936-94.046-22.197 11.933-50.56L310.81 42.152l68.819 16.238-49.593 210.13 29.826 7.028-11.641 49.286-29.811-7.029-18.64 78.936zm-17.088-139.408 47.353 11.143 33.897-143.669z"/><path fill="#121212" d="m300.327 397.576-56.87-13.383 18.64-78.936-94.047-22.242 12.197-51.496L310.562 41.317l70.019 16.53-49.652 210.087 29.812 7.028-11.948 50.662-29.826-7.028zm-55.098-14.51 54 12.753 18.64-78.98 29.811 7.043 11.362-47.822-29.826-7.042 49.535-210.087-67.618-15.901-129.598 189.206-11.713 49.696 94.046 22.198zm29.928-126.802-49.11-11.582 84.237-137.226zm-46.855-12.548 45.816 10.791 32.696-138.53z"/><path fill="#F35F0F" d="m236.766 381.938 18.639-78.936-94.032-22.197 11.919-50.545L303.241 40.468l68.818 16.253-49.622 210.071 29.812 7.043-11.626 49.286-29.826-7.043-18.625 78.936zM219.62 242.53l47.411 11.187 33.911-143.684z"/><path fill="#121212" d="m292.742 395.907-56.855-13.427 18.625-78.936-94.047-22.198 12.211-51.496L302.919 39.648l70.019 16.56-49.593 210.042 29.84 7.043-11.977 50.706-29.811-7.043zm-55.098-14.511 54.015 12.739 18.625-78.936 29.826 7.043 11.289-47.865-29.812-7.029 49.579-210.086-67.603-15.96-129.598 189.265-11.714 49.696 94.047 22.197zm29.928-126.801-49.095-11.597.527-.849 83.695-136.377zm-46.855-12.548 45.713 10.791 32.696-138.53z"/><path fill="#121212" d="M179.31 236.79s-8.683 8.478-9.313 13.778c-.629 5.301-8.053 27.323-5.505 31.569s16.106 12.709 16.106 12.709-16.516 4.232-15.257 12.915 7.204 9.532 7.204 9.532-13.339 7.848-8.888 13.558c4.451 5.711 15.038 4.876 16.736.22s-1.464-10.601-1.464-10.601 8.478-2.533 10.601-6.135a10.94 10.94 0 0 0 1.464-6.999s7.424 1.274 11.875-1.903 6.355-13.178 6.355-13.178 15.667-8.903 21.172-23.311 3.602-20.338 0-24.774c-3.602-4.437-29.87-17.571-37.908-15.902a24.73 24.73 0 0 0-13.178 8.522"/><path fill="#121212" d="M172.779 335.581a12.28 12.28 0 0 1-9.723-4.276 4.8 4.8 0 0 1-.966-3.997c.791-4.07 6.164-8.082 8.785-9.795-2.02-.894-5.3-3.31-6.223-9.635-1.127-7.658 10.001-11.948 14.218-13.28-3.543-2.299-12.827-8.522-14.964-12.095-1.772-2.928.468-12.299 3.353-23.34.995-3.792 1.859-7.086 2.05-8.682.644-5.359 8.785-13.471 9.502-14.174a25.1 25.1 0 0 1 13.53-8.712c8.317-1.743 34.819 11.435 38.641 16.106 3.484 4.305 5.856 10.367.117 25.507-5.184 13.573-19.035 22.183-21.217 23.515-.381 1.801-2.357 10.25-6.574 13.266-3.734 2.665-9.283 2.387-11.48 2.153a12 12 0 0 1-1.669 6.515c-1.859 3.163-7.965 5.462-10.249 6.209.82 1.83 2.562 6.471 1.142 10.41-.762 2.079-3.075 3.617-6.209 4.115q-1.025.173-2.064.19m21.392-106.698q-.79.002-1.567.147c-7.672 1.625-12.65 8.141-12.709 8.199l-.073.088c0 .088-8.507 8.361-9.108 13.339-.205 1.699-1.069 5.023-2.079 8.888-2.035 7.79-5.11 19.562-3.529 22.212 2.431 4.042 15.741 12.388 15.872 12.461l1.465.908-1.655.424c-.161 0-15.872 4.173-14.642 12.109s6.369 8.888 6.589 8.917l2.035.308-1.772 1.054c-.087 0-8.492 5.037-9.371 9.649a3.35 3.35 0 0 0 .674 2.826c2.504 3.207 7.028 4.1 10.411 3.573 2.606-.41 4.495-1.596 5.066-3.163 1.552-4.29-1.464-9.942-1.464-10l-.41-.791.849-.249c.088 0 8.229-2.504 10.249-5.857a10.14 10.14 0 0 0 1.391-6.486l-.19-1.04 1.04.176s7.16 1.186 11.303-1.772 6.048-12.592 6.062-12.68l.073-.337.293-.161c.147-.088 15.521-8.946 20.865-22.93 5.213-13.646 3.822-19.488.118-24.071-3.397-3.924-26.517-15.741-35.786-15.741"/><path fill="#fff" d="m197.319 290.395 4.247 19.709 21.816-12.725-5.856-8.463s-15.155 5.081-20.207 1.479"/><path fill="#121212" d="m201.053 311.231-4.847-22.52 1.537 1.084c4.73 3.338 19.328-1.464 19.475-1.581l.512-.176 6.706 9.576zm-2.695-19.489 3.705 17.22 20.265-11.817-5.169-7.321c-2.533.762-13.251 3.939-18.801 1.918"/><path fill="#fff" d="m196.045 249.075-13.339 23.515s4.876 10.806 7.834 14.203 6.574 7.629 16.531 8.683 15.886-8.683 16.311-15.037-6.369-25.214-6.369-25.214z"/><path fill="#121212" d="M208.536 296.34q-.771.007-1.538-.073c-10.132-1.084-13.881-5.374-16.897-8.786l-.102-.117c-3.002-3.441-7.761-13.939-7.966-14.378l-.146-.337 13.822-24.35 21.875 6.413.132.352c.278.776 6.823 19.034 6.399 25.506a19.04 19.04 0 0 1-6.487 12.417 13.98 13.98 0 0 1-9.092 3.353m-25.009-23.647c.849 1.845 4.993 10.732 7.57 13.676l.102.117c2.841 3.25 6.384 7.321 15.945 8.316a12.48 12.48 0 0 0 9.547-2.928 17.43 17.43 0 0 0 5.96-11.392c.38-5.652-5.272-21.963-6.194-24.555l-20.06-5.856z"/><path fill="#fff" d="M184.405 274.713s-6.355-2.533-4.876 2.753 8.258 5.301 8.258 5.301z"/><path fill="#121212" d="M188.9 283.499h-1.171c-.293 0-7.321 0-8.961-5.857a3.368 3.368 0 0 1 .527-3.617c1.611-1.464 4.949-.176 5.315 0l.293.103zm-7.423-8.669a1.68 1.68 0 0 0-1.142.323c-.454.41-.308 1.376-.103 2.123.966 3.441 4.554 4.392 6.413 4.656l-2.796-6.648a8.5 8.5 0 0 0-2.372-.454"/><path fill="#fff" d="M218.727 260.73c.058-.438.235-.851.511-1.196a2.42 2.42 0 0 1 2.355-.856 2.4 2.4 0 0 1 1.16.588c3.178 2.123-1.069 9.956-1.069 9.956z"/><path fill="#121212" d="m221.538 271.009-3.573-10.25v-.205a3.75 3.75 0 0 1 1.977-2.547 3.38 3.38 0 0 1 3.162.615c3.632 2.415-.351 10.059-.82 10.923zm-2.05-10.25 2.298 6.575c1.069-2.46 2.255-6.297.557-7.439a2.13 2.13 0 0 0-1.816-.468 2.24 2.24 0 0 0-1.039 1.288zM204.567 279.472l-3.046-7.014 1.348-.571 2.474 5.696 3.573-1.435.542 1.362zM205.768 284.48a11.5 11.5 0 0 1-4.29-.835l.585-1.332c2.146.858 4.532.9 6.706.117a8.36 8.36 0 0 0 4.393-5.213l1.376.498a9.856 9.856 0 0 1-5.198 6.077 9.2 9.2 0 0 1-3.572.688M208.492 268.168l-1.157-.893c.132-.161 3.104-3.983 7.145-2.797l-.41 1.465c-3.089-.967-5.549 2.196-5.578 2.225M204.04 260.13l-1.143-.908a9.067 9.067 0 0 1 9.254-3.002l-.41 1.465a7.66 7.66 0 0 0-7.701 2.445M188.051 266.924l-1.376-.513a7.69 7.69 0 0 1 4.026-4.671 7.5 7.5 0 0 1 5.433 0l-.586 1.347a6 6 0 0 0-4.29 0 6.26 6.26 0 0 0-3.207 3.837M197.173 271.726c.541 1.113.38 2.299-.352 2.65-.732.352-1.772-.234-2.313-1.332s-.381-2.299.351-2.65c.732-.352 1.772.234 2.314 1.332"/><path fill="#fff" d="M301.439 255.254s12.095-8.214 12.959-9.078 6.062-4.393 8.434-6.282 3.031-8.419 5.622-7.321a4.15 4.15 0 0 1 2.414 2.285 4.14 4.14 0 0 1-.042 3.323c-.864 1.947-5.183 5.418-5.183 5.418s11.889-2.387 12.534-1.084a6.15 6.15 0 0 1-.205 5.183c-.864 1.084-1.948 2.372-1.948 2.372s-.864 7.322-2.167 9.738-6.267 3.894-9.722 3.894c-3.456 0-10.601.864-10.601.864l-7.995 3.236z"/><path fill="#121212" d="m305.086 268.769-4.524-13.808.453-.322c4.671-3.163 12.271-8.39 12.871-8.99a44 44 0 0 1 3.748-2.812c1.67-1.186 3.573-2.547 4.744-3.499a10.5 10.5 0 0 0 2.109-3.617c.966-2.24 2.064-4.759 4.246-3.851a5.1 5.1 0 0 1 2.855 2.797 4.9 4.9 0 0 1-.088 3.807 15.1 15.1 0 0 1-3.309 3.865c9.855-1.757 10.44-.585 10.645-.175a6.837 6.837 0 0 1-.293 5.974l-1.815 2.225c-.161 1.274-.996 7.512-2.226 9.781-1.464 2.782-6.999 4.276-10.367 4.276-3.367 0-9.546.747-10.41.834zm-2.782-13.178 3.69 11.274 7.453-3.002c.292 0 7.218-.863 10.688-.863s7.98-1.465 9.079-3.515c1.098-2.049 1.845-7.452 2.079-9.458v-.22l.132-.176s1.083-1.288 1.947-2.357a5.64 5.64 0 0 0 .176-4.29c-1.069-.41-6.867.366-11.787 1.361l-2.929.586 2.358-1.889c1.156-.922 4.392-3.66 4.978-5.124a3.5 3.5 0 0 0 0-2.665 3.64 3.64 0 0 0-2.05-1.977c-.791-.337-1.464.996-2.343 3.06a10.94 10.94 0 0 1-2.533 4.173c-1.215.996-3.133 2.358-4.817 3.573s-3.177 2.255-3.558 2.65c-.761.776-10.132 7.145-12.563 8.815z"/><path fill="#fff" d="m195.679 385.965-.571 9.898 61.878-5.652-2.826-9.034z"/><path fill="#121212" d="m194.332 396.668.644-11.377 59.696-4.905 3.28 10.469zm2.035-10.015-.483 8.404 60.121-5.49-2.372-7.614z"/><path fill="#fff" d="M200.585 306.443s-10.762 6.296-13.617 11.187-25.258 40.734-23.633 44.819 8.961 8.961 12.226 8.961 32.213 4.481 32.213 4.481l-4.583-64.909z"/><path fill="#121212" d="m208.535 376.755-.908-.147c-.293 0-28.904-4.466-32.067-4.466-3.601 0-11.157-5.051-12.899-9.429-1.098-2.724 5.11-14.803 21.407-41.701a356 356 0 0 0 2.269-3.749c2.929-4.993 13.442-11.201 13.881-11.464l.644-.366 3.046 5.256v.176zm-8.2-69.302c-2.328 1.464-10.411 6.545-12.739 10.543-.41.702-1.2 2.02-2.269 3.777-14.979 24.716-22.154 38.304-21.305 40.398 1.465 3.675 8.522 8.507 11.538 8.507s26.356 3.573 31.393 4.393l-4.48-63.899z"/><path fill="#121212" d="m176.146 366.007-.351-1.464c7.892-1.977 17.146-9.166 17.234-9.239l.908 1.157c-.352.336-9.591 7.496-17.791 9.546"/><path fill="#121212" d="m184.8 367.662-.79-1.23c3.88-2.475 6.984-8.976 7.013-9.034l1.333.615c-.147.292-3.339 6.955-7.556 9.649"/><path fill="#fff" d="M301.44 255.254s-95.555 47.118-102.495 50.369-14.042 18.376-12.314 30.265c1.728 11.89 9.942 24.892 10.586 26.81s-2.167 18.157-2.811 21.188-.425 5.402 2.387 6.691 56.196-6.047 58.144-7.131c1.947-1.083 3.675-3.675 2.386-8.214s-6.706-16.429-6.706-17.571-9.298-30.748-9.298-30.748 43.663-36.972 48.642-43.034c4.978-6.061 15.564-16.209 15.564-16.209z"/><path fill="#121212" d="M198.344 391.426a5.9 5.9 0 0 1-1.845-.175c-3.558-1.64-3.353-4.891-2.796-7.527.893-4.114 3.353-19.225 2.84-20.806-.132-.366-.688-1.464-1.376-2.724-2.563-4.817-7.892-14.861-9.254-24.203-1.801-12.417 5.623-27.703 12.739-31.027 6.838-3.206 101.499-49.9 102.495-50.369l.761-.381 4.51 13.779-.322.322c-.117.102-10.63 10.249-15.506 16.106s-43.824 38.963-48.319 42.799c2.343 7.468 9.18 29.373 9.18 30.456 0 .513 1.362 3.69 2.519 6.487 1.625 3.924 3.455 8.375 4.158 10.82 1.713 6.047-1.654 8.463-2.738 9.064-1.947 1.083-46.987 7.379-57.046 7.379m102.657-135.147c-9.035 4.393-95.175 46.943-101.734 50.003-6.56 3.06-13.574 17.966-11.904 29.504 1.317 9.093 6.574 19.035 9.092 23.72a26 26 0 0 1 1.465 2.929c.761 2.284-2.329 19.459-2.782 21.568-.703 3.265-.147 4.905 1.976 5.857 3.104 1.142 55.231-6.077 57.5-7.117 1.054-.585 3.397-2.503 2.006-7.321-.673-2.372-2.489-6.779-4.085-10.674-1.947-4.729-2.636-6.442-2.636-7.043-.131-1.127-5.608-18.844-9.268-30.47l-.147-.469.381-.322c.439-.366 43.678-36.986 48.539-42.916 4.393-5.418 13.456-14.188 15.301-15.96z"/><path fill="#121212" d="m206.763 365.905-.79-1.23a34.7 34.7 0 0 0 4.641-3.836l1.011 1.069a37.3 37.3 0 0 1-4.862 3.997M215.051 358.481l-1.054-1.025c7.775-7.936 17.732-19.84 23.047-26.356-5.286 3.91-14.086 10.25-21.729 15.243l-.805-1.23c11.713-7.614 26.238-18.61 26.355-18.713l4.715-3.587-3.675 4.671c-.161.19-15.726 19.62-26.854 30.997M201.726 353.679l-.336-1.465a42.3 42.3 0 0 0 9.62-4.89l.776 1.245c-4.774 2.987-8.068 4.641-10.06 5.11M214.085 366.315l-.835-1.201a109 109 0 0 0 9.605-9.195l1.069 1.01a107 107 0 0 1-9.839 9.386M243.559 320.646l-.981-1.084a26.8 26.8 0 0 0 3.265-3.66l1.157.893a28.7 28.7 0 0 1-3.441 3.851M249.987 312.446l-1.23-.79a215 215 0 0 0 13.515-26.254l1.347.571a216 216 0 0 1-13.632 26.473M296.719 257.763l-1.366.525 5.404 14.049 1.366-.526z"/><path fill="#fff" d="m223.075 537.936-11.582 44.922-7.321 11.289-4.803 16.107 9.884 4.802s5.359-5.359 8.477-2.254 3.383 8.477 3.383 8.477 14.935 4.51 18.068 4.261 7.907.571 8.478-.849.849-12.138-.571-13.559c-.981-.981-11.245-4.261-17.79-9.883-2.929-2.46-5.022-9.913-5.374-10.176-1.127-.85 23.164-50.004 23.164-50.004z"/><path fill="#121212" d="M238.888 626.287c-3.704 0-16.502-3.837-17.995-4.276l-.498-.161v-.512s-.308-5.125-3.177-7.995c-1.025-1.025-2.548-.996-4.525.088a14.5 14.5 0 0 0-2.928 2.182l-.366.366-10.923-5.301 5.08-16.897 7.322-11.201 11.713-45.391 25.668 3.324-.454.908c-9.093 18.405-22.578 46.401-23.105 49.432.132.234.278.659.6 1.464.835 2.182 2.562 6.721 4.525 8.404 4.392 3.807 10.688 6.56 14.422 8.2a15.5 15.5 0 0 1 3.426 1.728c1.801 1.801 1.289 12.929.718 14.349s-2.826 1.347-5.696 1.274a32 32 0 0 0-3.382 0zm-17.102-5.535c4.393 1.318 14.979 4.275 17.322 4.056 1.098-.088 2.357 0 3.572 0 1.216 0 4.056.102 4.291-.352.571-1.464.629-11.713-.396-12.782a24.5 24.5 0 0 0-2.928-1.464c-3.807-1.67-10.177-4.466-14.789-8.42-2.24-1.932-3.997-6.53-4.949-8.99-.205-.542-.41-1.084-.498-1.259-.498-.674.161-4.393 22.608-49.886l-22.344-2.929-11.568 44.601-7.321 11.215-4.583 15.404 8.874 4.305a15 15 0 0 1 2.928-2.05c3.251-1.801 5.198-.908 6.267.161a14.76 14.76 0 0 1 3.514 8.39"/><path fill="#121212" d="M247.659 624.691c.556-1.464.849-12.138-.571-13.559-.981-.981-11.245-4.261-17.79-9.883-2.929-2.46-5.023-9.913-5.374-10.177-.117-.087 0-.688.395-1.669l-13.661-5.242-6.501 10.016-4.803 16.106 9.884 4.803s5.359-5.359 8.478-2.255 3.382 8.478 3.382 8.478 14.95 4.48 18.083 4.231c3.134-.249 7.907.571 8.478-.849"/><path fill="#121212" d="M238.888 626.287c-3.704 0-16.502-3.836-17.995-4.276l-.498-.161v-.512s-.308-5.125-3.177-7.995c-1.025-1.025-2.548-.996-4.525.088a14.5 14.5 0 0 0-2.928 2.182l-.366.366-10.923-5.301 5.08-16.897 6.824-10.513 14.891 5.711-.249.688q-.213.569-.366 1.156c.132.249.293.659.6 1.465.835 2.181 2.563 6.72 4.525 8.404 4.392 3.807 10.688 6.56 14.422 8.2a15.4 15.4 0 0 1 3.426 1.728c1.801 1.801 1.289 12.929.718 14.349-.557 1.464-2.826 1.347-5.696 1.274a32 32 0 0 0-3.382 0zm-17.102-5.535c4.393 1.318 14.979 4.276 17.322 4.056 1.098-.088 2.357 0 3.572 0 1.216 0 4.056.102 4.291-.351.571-1.465.629-11.714-.396-12.783a25 25 0 0 0-2.928-1.464c-3.807-1.67-10.177-4.466-14.789-8.42-2.24-1.932-3.997-6.53-4.949-8.99-.19-.527-.41-1.069-.498-1.259-.322-.337-.263-.835 0-1.713l-12.446-4.788-6.135 9.444-4.583 15.404 8.873 4.304a15 15 0 0 1 2.929-2.05c3.25-1.801 5.198-.907 6.267.162a14.75 14.75 0 0 1 3.47 8.448"/><path fill="#fff" d="m266.021 524.114 27.659 69.023s-1.787 10.425 0 13.178a140 140 0 0 1 5.856 12.973l14.745-3.558s-1.259-5.096 2.797-4.832c2.494.168 4.924.861 7.131 2.035 0 0 11.948-6.369 15.506-8.404s5.344-4.818 5.08-5.857c-.263-1.04-3.807-8.903-7.877-8.141-4.071.761-11.714 4.07-15.506 4.07s-12.212-2.796-13.983-5.857c-1.772-3.06-13.705-54.249-13.705-54.249l-3.397-24.57-12.139-41.54z"/><path fill="#121212" d="m299.082 620.181-.234-.586c0-.102-4.071-10.132-5.784-12.841s-.439-11.714-.146-13.529l-27.586-69.038v-.22l12.768-58.466 12.944 44.293 3.411 24.672c3.309 14.144 12.197 51.555 13.618 53.985 1.581 2.709 9.707 5.477 13.353 5.477a38.6 38.6 0 0 0 9.137-2.255 58 58 0 0 1 6.238-1.801c4.802-.893 8.477 7.731 8.785 8.683.366 1.464-1.728 4.539-5.432 6.662s-15.419 8.331-15.536 8.404l-.351.191-.352-.205a17.2 17.2 0 0 0-6.808-1.933 1.87 1.87 0 0 0-1.699.542 4.5 4.5 0 0 0-.336 3.367l.175.718zm-32.286-96.126 27.659 69.009v.205c-.483 2.811-1.464 10.601-.102 12.694a124 124 0 0 1 5.681 12.505l13.456-3.251a5.19 5.19 0 0 1 .776-3.938 3.28 3.28 0 0 1 2.929-1.069c2.463.162 4.868.82 7.072 1.932 1.991-1.068 11.977-6.384 15.14-8.199 3.558-2.035 4.846-4.554 4.744-5.037-.264-1.025-3.646-8.229-7.043-7.585a55 55 0 0 0-6.047 1.743 38.4 38.4 0 0 1-9.591 2.328c-4.144 0-12.695-2.929-14.642-6.208-1.772-3.061-12.548-49.198-13.778-54.44l-3.456-24.628-11.318-38.67z"/><path fill="#121212" d="M344.781 598.73c-.249-1.01-3.807-8.902-7.878-8.141s-11.713 4.071-15.506 4.071c-3.792 0-12.211-2.797-13.983-5.857a14.6 14.6 0 0 1-.805-2.226l-13.325 5.579.396.966s-1.787 10.425 0 13.178a141 141 0 0 1 5.857 12.973l14.744-3.558s-1.259-5.095 2.797-4.832c2.494.168 4.924.862 7.131 2.035 0 0 11.948-6.369 15.506-8.404s5.329-4.759 5.066-5.784"/><path fill="#121212" d="m299.082 620.181-.234-.586c0-.102-4.07-10.132-5.784-12.841s-.439-11.714-.146-13.529l-.571-1.464 14.715-6.15.249.761c.187.712.432 1.408.732 2.079 1.582 2.709 9.708 5.477 13.354 5.477a38.6 38.6 0 0 0 9.137-2.255 58 58 0 0 1 6.237-1.801c4.803-.893 8.478 7.731 8.786 8.683.366 1.464-1.728 4.539-5.433 6.662s-15.418 8.331-15.535 8.404l-.351.191-.352-.205a17.2 17.2 0 0 0-6.808-1.933 1.85 1.85 0 0 0-1.684.542 4.54 4.54 0 0 0-.352 3.382l.176.703zm-4.846-27.615.205.498v.205c-.483 2.811-1.464 10.601-.103 12.694a124 124 0 0 1 5.681 12.505l13.457-3.251a5.19 5.19 0 0 1 .776-3.938 3.28 3.28 0 0 1 2.928-1.069c2.463.162 4.869.82 7.072 1.932 1.992-1.068 11.978-6.384 15.14-8.199 3.558-2.035 4.847-4.554 4.744-5.037-.263-1.025-3.66-8.244-7.043-7.585a55 55 0 0 0-6.047 1.743 38.4 38.4 0 0 1-9.59 2.328c-3.676 0-12.563-2.68-14.643-6.208a8.5 8.5 0 0 1-.615-1.611zM195.05 395.907l-18.581 146.861a373.4 373.4 0 0 0 52.258 2.255c27.966-.849 35.317-1.977 35.317-1.977l14.466-66.959 15.257 58.481 7.058-2.255s-7.907-47.455-12.431-57.631c-4.525-10.177-31.349-84.471-31.349-84.471z"/><path fill="#121212" d="M218.96 545.901c-14.232 0-28.453-.807-42.594-2.416l-.718-.088 18.816-148.208h.585l62.42-5.696.205.528c.264.746 26.883 74.396 31.334 84.426s12.153 55.86 12.49 57.808l.103.615-8.449 2.635-14.642-56.255-13.866 64.426-.498.087c-.308 0-7.717 1.143-35.405 1.977-3.309.117-6.589.161-9.781.161m-41.672-3.777a378 378 0 0 0 51.438 2.167c23.735-.718 32.667-1.655 34.717-1.904l14.95-69.462 15.843 60.721 5.725-1.831c-.952-5.637-8.127-47.499-12.271-56.841-4.29-9.619-28.757-77.266-31.187-83.987l-60.722 5.549z"/></svg>